<?xml version="1.0" encoding="utf-8"?>
<!-- Generator: Adobe Illustrator 21.0.2, SVG Export Plug-In . SVG Version: 6.00 Build 0)  -->
<svg version="1.1" xmlns="http://www.w3.org/2000/svg" xmlns:xlink="http://www.w3.org/1999/xlink" x="0px" y="0px"
	 viewBox="0 0 170.5 92.8" style="enable-background:new 0 0 170.5 92.8;" xml:space="preserve">
<style type="text/css">
	.st0{display:none;}
	.st1{display:inline;fill:#FF003D;stroke:#FF003D;stroke-miterlimit:10;}
	.st2{display:inline;}
	.st3{fill:#FF003D;stroke:#FF003D;stroke-miterlimit:10;}
	.st4{display:inline;fill:#0BA3DB;stroke:#0BA3DB;stroke-miterlimit:10;}
	.st5{fill:#0BA3DB;stroke:#0BA3DB;stroke-miterlimit:10;}
	.st6{fill:#E5A60C;stroke:#E5A60C;stroke-miterlimit:10;}
</style>
<g id="High" class="st0">
	<line class="st1" x1="12.8" y1="43.6" x2="12.8" y2="43.6"/>
	<g class="st2">
		<path class="st3" d="M168.5,37.9c-0.1-0.3-0.2-0.5-0.4-0.8c-0.1-0.2-0.4-0.7-0.6-1.1c-0.3-0.3-0.6-0.5-0.9-0.8l-0.7-0.5l-2.6-1.8
			l-5.3-3.6l-10.6-7.2l-5.4-3.6l-2.7-1.8l-1.4-0.9l-1.4-0.8c-7.6-4.2-15.6-7.7-23.9-10.1s-16.9-4-25.7-4.1C78.2,0.5,69.3,2,61,5.3
			l-3.1,1.3L55,8.2c-1.9,1.1-4,2.2-5.8,3.7c-3.6,2.7-6.9,6-9.8,9.5c-0.2,0.2-0.3,0.4-0.5,0.6c-0.3-0.5-0.8-0.8-1.3-0.8H24.1
			c-7.5,0-14.9,0.8-22.3,2.5c-0.5,0.1-0.5,1.7,0,1.8C9.1,27.1,16.6,28,24.1,28h10.5c-1,1.5-1.9,3.1-2.8,4.6
			c-0.5,1.1-1.1,2.1-1.6,3.2c-0.1,0-0.1,0-0.2,0h-9.1c-5,0-9.9,0.8-14.9,2.5c-0.2,0.1-0.2,0.4-0.2,0.8C5.8,39.6,5.9,40,6,40
			c5,1.7,9.9,2.5,14.9,2.5h6.7c-0.3,1.1-0.5,2.1-0.8,3.3c-0.3,1.5-0.4,2.9-0.5,4.5c0,0.1,0,0.1,0,0.2h-6c-3.3,0-6.7,0.8-9.9,2.5
			c-0.2,0.1-0.2,1.7,0,1.8c3.3,1.7,6.7,2.5,9.9,2.5h6.1c0.1,0,0.2-0.1,0.3-0.2c0.2,2,0.5,4,1,6.1c0.1,0.7,0.4,1.5,0.6,2.2
			c0.1,0.4,0.2,0.7,0.4,1.2l0.5,1.2c0.6,1.5,1.9,3.3,3.5,4.4c0.2,0.2,0.5,0.3,0.7,0.4c-0.1,0.6-0.2,1.3-0.2,1.8
			c-0.2,2.7-0.1,5.8,0.9,8.7c0.7,1.8,1.7,3.6,3.1,5.1c1.4,1.5,3.1,2.4,5,3.1c3.5,1.3,7.1,0.9,10.3,0.1c3.2-0.8,6.3-2.3,8.9-4.2
			c2.7-1.9,5.1-4.4,6.9-7.4c0.2-0.4,0.4-0.7,0.6-1.2c1.1,0.1,2.3,0.2,3.4,0.2c10.5,0.6,20.9,0.2,31.2-0.3l11.2-0.7
			c0.1,1.8,0.4,3.6,1,5.4c0.7,1.8,1.7,3.6,3.1,5.1c1.4,1.5,3.1,2.4,5,3.1c3.5,1.3,7.1,0.9,10.3,0.1c3.2-0.8,6.3-2.3,8.9-4.2
			c2.7-1.9,5.1-4.4,6.9-7.4c0.4-0.7,0.7-1.5,0.9-2.2c0.1-0.7,0.2-1.5,0.1-2c-0.1-0.6-0.4-1.2-0.7-1.6c1.1-0.4,1.7-0.9,1.7-1.5
			c0-0.4-0.5-0.9-1.3-1.3c0.5-2,0.7-4.3,0.2-6.5c-0.5-2.8-2.4-5.4-4.9-6.8c-2.4-1.5-5.1-2.1-7.7-2.3c-2.6-0.1-5.3,0.2-7.8,0.9
			c-5,1.5-9.9,4.4-13,9.5l-0.6,0.9l-0.5,1.1c-0.3,0.6-0.6,1.4-0.8,2.1c-0.1,0.2-0.1,0.5-0.2,0.7l-12.2,0.8
			c-10.2,0.5-20.4,0.9-30.5,0.3c-1.3-0.1-2.6-0.1-3.9-0.2c0.6-2.2,0.9-4.6,0.3-7.1c-0.5-2.8-2.4-5.4-4.9-6.8
			c-2.4-1.5-5.1-2.1-7.7-2.3c-2.6-0.1-5.3,0.2-7.8,0.9c-5,1.5-9.8,4.4-12.9,9.5c-0.7-0.8-1.3-2.5-1.8-4.4c-0.6-2.3-0.9-5-1.2-7.5
			c-0.1-0.6-0.1-1.2-0.1-1.8c0-0.5-0.1-1.2,0-1.7c0.1-1.2,0.1-2.3,0.4-3.5c0.7-3.8,2.2-7.7,4.1-11.3c1.9-3.6,4.2-7.1,6.9-10.2
			s5.6-6.1,8.7-8.5c1.5-1.3,3.1-2.2,5-3.2l2.6-1.5l2.7-1.2c7.4-3.1,15.5-4.6,23.6-4.6s16.3,1.2,24.3,3.4c8,2.1,15.7,5.3,23,9.1
			l1.4,0.7l1.3,0.7l2.7,1.7l5.5,3.4l10.8,6.7l5.4,3.4l2.6,1.7l0.6,0.4c0.1,0.1,0.2,0.1,0.3,0.2l0.2,0.3L165,39
			c1.5,3.5,1.8,7.9,1.5,12c-0.4,4.2-1.4,8.3-3.2,12c-1.8,3.7-4.8,6.8-8.5,8l0,0c-1.9,0.5-3,0.8-3,1.3c0,0.3,1.1,0.9,3.4,0.4l0,0
			c2.2-0.5,4.2-1.7,5.9-3.3c1.7-1.5,3-3.4,4.2-5.4c2.2-4,3.5-8.3,4.1-12.9C170.3,47.1,170.3,42.4,168.5,37.9z M62.7,61.6
			c1.7,0.8,3.2,2.2,3.9,4.1c0.7,1.9,0.8,4.3,0.5,6.6c-0.1,0.6,0.2,1.1,0.6,1.2c-0.9-0.2-1.8,0-2.6,0.5c-0.4,0.2-0.8,0.6-1.2,0.9
			c-0.4,0.4-0.7,0.8-1,1.3c-2.5,4.2-7.1,7.4-11.7,8.5c-2.3,0.6-4.8,0.7-6.7,0c-0.9-0.3-1.8-0.8-2.4-1.5c-0.6-0.6-1.1-1.5-1.5-2.4
			c-0.6-1.7-0.7-3.7-0.6-5.8c0.1-1.2,0.2-2,0.4-2.9c0.1-0.4,0.2-0.9,0.4-1.4l0.3-0.6l0.3-0.6c1.8-3.4,5.4-6.1,9.2-7.6
			C54.6,60.5,59,60,62.7,61.6z M146.7,74c-0.4,0.2-0.8,0.6-1.2,0.9c-0.4,0.4-0.7,0.8-1,1.3c-2.5,4.2-7.1,7.4-11.7,8.5
			c-2.3,0.6-4.8,0.7-6.7,0c-0.9-0.3-1.8-0.8-2.4-1.5c-0.6-0.6-1.1-1.5-1.5-2.4c-0.6-1.7-0.7-3.7-0.6-5.8c0.1-1.2,0.2-2,0.4-2.9
			c0.1-0.4,0.2-0.9,0.4-1.4l0.3-0.6l0.3-0.6c1.8-3.4,5.4-6.1,9.2-7.6c3.8-1.5,8.4-2,12-0.5c1.7,0.8,3.2,2.2,3.9,4.1s0.8,4.3,0.5,6.6
			c-0.1,0.6,0.2,1.1,0.6,1.2C148.5,73.2,147.5,73.5,146.7,74z"/>
		<path class="st3" d="M131.6,35.2c-10.6-1.2-21.2-2.1-31.8-2.4l0.5-1.8c0.8-2.8,0.7-5.9-0.1-9.1c-0.1-0.2-1.5-0.6-1.6-0.4l0,0
			c-2.3,2.4-3.9,5-4.6,7.8L93,32.8c-1.4,0-2.8-0.1-4.2-0.1H62.5c-2.1,0-3.7,1.6-3.7,3.4c0,1.9,1.7,3.4,3.7,3.4h26.3
			c14.4,0,28.7-0.8,43-2.5C132.5,36.7,132.5,35.3,131.6,35.2z"/>
	</g>
</g>
<g id="Medium" class="st0">
	<line class="st4" x1="12.8" y1="43.6" x2="12.8" y2="43.6"/>
	<g class="st2">
		<path class="st5" d="M168.5,37.9c-0.1-0.3-0.2-0.5-0.4-0.8c-0.1-0.2-0.4-0.7-0.6-1.1c-0.3-0.3-0.6-0.5-0.9-0.8l-0.7-0.5l-2.6-1.8
			l-5.3-3.6l-10.6-7.2l-5.4-3.6l-2.7-1.8l-1.4-0.9l-1.4-0.8c-7.6-4.2-15.6-7.7-23.9-10.1s-16.9-4-25.7-4.1C78.2,0.5,69.3,2,61,5.3
			l-3.1,1.3L55,8.2c-1.9,1.1-4,2.2-5.8,3.7c-3.6,2.7-6.9,6-9.8,9.5c-0.2,0.2-0.3,0.4-0.5,0.6c-0.3-0.5-0.8-0.8-1.3-0.8H24.1
			c-7.5,0-14.9,0.8-22.3,2.5c-0.5,0.1-0.5,1.7,0,1.8C9.1,27.1,16.6,28,24.1,28h10.5c-1,1.5-1.9,3.1-2.8,4.6
			c-0.5,1.1-1.1,2.1-1.6,3.2c-0.1,0-0.1,0-0.2,0h-9.1c-5,0-9.9,0.8-14.9,2.5c-0.2,0.1-0.2,0.4-0.2,0.8C5.8,39.6,5.9,40,6,40
			c5,1.7,9.9,2.5,14.9,2.5h6.7c-0.3,1.1-0.5,2.1-0.8,3.3c-0.3,1.5-0.4,2.9-0.5,4.5c0,0.1,0,0.1,0,0.2h-6c-3.3,0-6.7,0.8-9.9,2.5
			c-0.2,0.1-0.2,1.7,0,1.8c3.3,1.7,6.7,2.5,9.9,2.5h6.1c0.1,0,0.2-0.1,0.3-0.2c0.2,2,0.5,4,1,6.1c0.1,0.7,0.4,1.5,0.6,2.2
			c0.1,0.4,0.2,0.7,0.4,1.2l0.5,1.2c0.6,1.5,1.9,3.3,3.5,4.4c0.2,0.2,0.5,0.3,0.7,0.4c-0.1,0.6-0.2,1.3-0.2,1.8
			c-0.2,2.7-0.1,5.8,0.9,8.7c0.7,1.8,1.7,3.6,3.1,5.1c1.4,1.5,3.1,2.4,5,3.1c3.5,1.3,7.1,0.9,10.3,0.1c3.2-0.8,6.3-2.3,8.9-4.2
			c2.7-1.9,5.1-4.4,6.9-7.4c0.2-0.4,0.4-0.7,0.6-1.2c1.1,0.1,2.3,0.2,3.4,0.2c10.5,0.6,20.9,0.2,31.2-0.3l11.2-0.7
			c0.1,1.8,0.4,3.6,1,5.4c0.7,1.8,1.7,3.6,3.1,5.1c1.4,1.5,3.1,2.4,5,3.1c3.5,1.3,7.1,0.9,10.3,0.1c3.2-0.8,6.3-2.3,8.9-4.2
			c2.7-1.9,5.1-4.4,6.9-7.4c0.4-0.7,0.7-1.5,0.9-2.2c0.1-0.7,0.2-1.5,0.1-2c-0.1-0.6-0.4-1.2-0.7-1.6c1.1-0.4,1.7-0.9,1.7-1.5
			c0-0.4-0.5-0.9-1.3-1.3c0.5-2,0.7-4.3,0.2-6.5c-0.5-2.8-2.4-5.4-4.9-6.8c-2.4-1.5-5.1-2.1-7.7-2.3c-2.6-0.1-5.3,0.2-7.8,0.9
			c-5,1.5-9.9,4.4-13,9.5l-0.6,0.9l-0.5,1.1c-0.3,0.6-0.6,1.4-0.8,2.1c-0.1,0.2-0.1,0.5-0.2,0.7l-12.2,0.8
			c-10.2,0.5-20.4,0.9-30.5,0.3c-1.3-0.1-2.6-0.1-3.9-0.2c0.6-2.2,0.9-4.6,0.3-7.1c-0.5-2.8-2.4-5.4-4.9-6.8
			c-2.4-1.5-5.1-2.1-7.7-2.3c-2.6-0.1-5.3,0.2-7.8,0.9c-5,1.5-9.8,4.4-12.9,9.5c-0.7-0.8-1.3-2.5-1.8-4.4c-0.6-2.3-0.9-5-1.2-7.5
			c-0.1-0.6-0.1-1.2-0.1-1.8c0-0.5-0.1-1.2,0-1.7c0.1-1.2,0.1-2.3,0.4-3.5c0.7-3.8,2.2-7.7,4.1-11.3c1.9-3.6,4.2-7.1,6.9-10.2
			s5.6-6.1,8.7-8.5c1.5-1.3,3.1-2.2,5-3.2l2.6-1.5l2.7-1.2c7.4-3.1,15.5-4.6,23.6-4.6s16.3,1.2,24.3,3.4c8,2.1,15.7,5.3,23,9.1
			l1.4,0.7l1.3,0.7l2.7,1.7l5.5,3.4l10.8,6.7l5.4,3.4l2.6,1.7l0.6,0.4c0.1,0.1,0.2,0.1,0.3,0.2l0.2,0.3L165,39
			c1.5,3.5,1.8,7.9,1.5,12c-0.4,4.2-1.4,8.3-3.2,12c-1.8,3.7-4.8,6.8-8.5,8l0,0c-1.9,0.5-3,0.8-3,1.3c0,0.3,1.1,0.9,3.4,0.4l0,0
			c2.2-0.5,4.2-1.7,5.9-3.3c1.7-1.5,3-3.4,4.2-5.4c2.2-4,3.5-8.3,4.1-12.9C170.3,47.1,170.3,42.4,168.5,37.9z M62.7,61.6
			c1.7,0.8,3.2,2.2,3.9,4.1c0.7,1.9,0.8,4.3,0.5,6.6c-0.1,0.6,0.2,1.1,0.6,1.2c-0.9-0.2-1.8,0-2.6,0.5c-0.4,0.2-0.8,0.6-1.2,0.9
			c-0.4,0.4-0.7,0.8-1,1.3c-2.5,4.2-7.1,7.4-11.7,8.5c-2.3,0.6-4.8,0.7-6.7,0c-0.9-0.3-1.8-0.8-2.4-1.5c-0.6-0.6-1.1-1.5-1.5-2.4
			c-0.6-1.7-0.7-3.7-0.6-5.8c0.1-1.2,0.2-2,0.4-2.9c0.1-0.4,0.2-0.9,0.4-1.4l0.3-0.6l0.3-0.6c1.8-3.4,5.4-6.1,9.2-7.6
			C54.6,60.5,59,60,62.7,61.6z M146.7,74c-0.4,0.2-0.8,0.6-1.2,0.9c-0.4,0.4-0.7,0.8-1,1.3c-2.5,4.2-7.1,7.4-11.7,8.5
			c-2.3,0.6-4.8,0.7-6.7,0c-0.9-0.3-1.8-0.8-2.4-1.5c-0.6-0.6-1.1-1.5-1.5-2.4c-0.6-1.7-0.7-3.7-0.6-5.8c0.1-1.2,0.2-2,0.4-2.9
			c0.1-0.4,0.2-0.9,0.4-1.4l0.3-0.6l0.3-0.6c1.8-3.4,5.4-6.1,9.2-7.6c3.8-1.5,8.4-2,12-0.5c1.7,0.8,3.2,2.2,3.9,4.1s0.8,4.3,0.5,6.6
			c-0.1,0.6,0.2,1.1,0.6,1.2C148.5,73.2,147.5,73.5,146.7,74z"/>
		<path class="st5" d="M131.6,35.2c-10.6-1.2-21.2-2.1-31.8-2.4l0.5-1.8c0.8-2.8,0.7-5.9-0.1-9.1c-0.1-0.2-1.5-0.6-1.6-0.4l0,0
			c-2.3,2.4-3.9,5-4.6,7.8L93,32.8c-1.4,0-2.8-0.1-4.2-0.1H62.5c-2.1,0-3.7,1.6-3.7,3.4c0,1.9,1.7,3.4,3.7,3.4h26.3
			c14.4,0,28.7-0.8,43-2.5C132.5,36.7,132.5,35.3,131.6,35.2z"/>
	</g>
</g>
<g id="Low">
	<line class="st6" x1="12.8" y1="43.6" x2="12.8" y2="43.6"/>
	<g>
		<path class="st6" d="M168.5,37.9c-0.1-0.3-0.2-0.5-0.4-0.8c-0.1-0.2-0.4-0.7-0.6-1.1c-0.3-0.3-0.6-0.5-0.9-0.8l-0.7-0.5l-2.6-1.8
			l-5.3-3.6l-10.6-7.2l-5.4-3.6l-2.7-1.8l-1.4-0.9l-1.4-0.8c-7.6-4.2-15.6-7.7-23.9-10.1s-16.9-4-25.7-4.1C78.2,0.5,69.3,2,61,5.3
			l-3.1,1.3L55,8.2c-1.9,1.1-4,2.2-5.8,3.7c-3.6,2.7-6.9,6-9.8,9.5c-0.2,0.2-0.3,0.4-0.5,0.6c-0.3-0.5-0.8-0.8-1.3-0.8H24.1
			c-7.5,0-14.9,0.8-22.3,2.5c-0.5,0.1-0.5,1.7,0,1.8C9.1,27.1,16.6,28,24.1,28h10.5c-1,1.5-1.9,3.1-2.8,4.6
			c-0.5,1.1-1.1,2.1-1.6,3.2c-0.1,0-0.1,0-0.2,0h-9.1c-5,0-9.9,0.8-14.9,2.5c-0.2,0.1-0.2,0.4-0.2,0.8C5.8,39.6,5.9,40,6,40
			c5,1.7,9.9,2.5,14.9,2.5h6.7c-0.3,1.1-0.5,2.1-0.8,3.3c-0.3,1.5-0.4,2.9-0.5,4.5c0,0.1,0,0.1,0,0.2h-6c-3.3,0-6.7,0.8-9.9,2.5
			c-0.2,0.1-0.2,1.7,0,1.8c3.3,1.7,6.7,2.5,9.9,2.5h6.1c0.1,0,0.2-0.1,0.3-0.2c0.2,2,0.5,4,1,6.1c0.1,0.7,0.4,1.5,0.6,2.2
			c0.1,0.4,0.2,0.7,0.4,1.2l0.5,1.2c0.6,1.5,1.9,3.3,3.5,4.4c0.2,0.2,0.5,0.3,0.7,0.4c-0.1,0.6-0.2,1.3-0.2,1.8
			c-0.2,2.7-0.1,5.8,0.9,8.7c0.7,1.8,1.7,3.6,3.1,5.1c1.4,1.5,3.1,2.4,5,3.1c3.5,1.3,7.1,0.9,10.3,0.1c3.2-0.8,6.3-2.3,8.9-4.2
			c2.7-1.9,5.1-4.4,6.9-7.4c0.2-0.4,0.4-0.7,0.6-1.2c1.1,0.1,2.3,0.2,3.4,0.2c10.5,0.6,20.9,0.2,31.2-0.3l11.2-0.7
			c0.1,1.8,0.4,3.6,1,5.4c0.7,1.8,1.7,3.6,3.1,5.1c1.4,1.5,3.1,2.4,5,3.1c3.5,1.3,7.1,0.9,10.3,0.1c3.2-0.8,6.3-2.3,8.9-4.2
			c2.7-1.9,5.1-4.4,6.9-7.4c0.4-0.7,0.7-1.5,0.9-2.2c0.1-0.7,0.2-1.5,0.1-2c-0.1-0.6-0.4-1.2-0.7-1.6c1.1-0.4,1.7-0.9,1.7-1.5
			c0-0.4-0.5-0.9-1.3-1.3c0.5-2,0.7-4.3,0.2-6.5c-0.5-2.8-2.4-5.4-4.9-6.8c-2.4-1.5-5.1-2.1-7.7-2.3c-2.6-0.1-5.3,0.2-7.8,0.9
			c-5,1.5-9.9,4.4-13,9.5l-0.6,0.9l-0.5,1.1c-0.3,0.6-0.6,1.4-0.8,2.1c-0.1,0.2-0.1,0.5-0.2,0.7l-12.2,0.8
			c-10.2,0.5-20.4,0.9-30.5,0.3c-1.3-0.1-2.6-0.1-3.9-0.2c0.6-2.2,0.9-4.6,0.3-7.1c-0.5-2.8-2.4-5.4-4.9-6.8
			c-2.4-1.5-5.1-2.1-7.7-2.3c-2.6-0.1-5.3,0.2-7.8,0.9c-5,1.5-9.8,4.4-12.9,9.5c-0.7-0.8-1.3-2.5-1.8-4.4c-0.6-2.3-0.9-5-1.2-7.5
			c-0.1-0.6-0.1-1.2-0.1-1.8c0-0.5-0.1-1.2,0-1.7c0.1-1.2,0.1-2.3,0.4-3.5c0.7-3.8,2.2-7.7,4.1-11.3c1.9-3.6,4.2-7.1,6.9-10.2
			s5.6-6.1,8.7-8.5c1.5-1.3,3.1-2.2,5-3.2l2.6-1.5l2.7-1.2c7.4-3.1,15.5-4.6,23.6-4.6s16.3,1.2,24.3,3.4c8,2.1,15.7,5.3,23,9.1
			l1.4,0.7l1.3,0.7l2.7,1.7l5.5,3.4l10.8,6.7l5.4,3.4l2.6,1.7l0.6,0.4c0.1,0.1,0.2,0.1,0.3,0.2l0.2,0.3L165,39
			c1.5,3.5,1.8,7.9,1.5,12c-0.4,4.2-1.4,8.3-3.2,12c-1.8,3.7-4.8,6.8-8.5,8l0,0c-1.9,0.5-3,0.8-3,1.3c0,0.3,1.1,0.9,3.4,0.4l0,0
			c2.2-0.5,4.2-1.7,5.9-3.3c1.7-1.5,3-3.4,4.2-5.4c2.2-4,3.5-8.3,4.1-12.9C170.3,47.1,170.3,42.4,168.5,37.9z M62.7,61.6
			c1.7,0.8,3.2,2.2,3.9,4.1c0.7,1.9,0.8,4.3,0.5,6.6c-0.1,0.6,0.2,1.1,0.6,1.2c-0.9-0.2-1.8,0-2.6,0.5c-0.4,0.2-0.8,0.6-1.2,0.9
			c-0.4,0.4-0.7,0.8-1,1.3c-2.5,4.2-7.1,7.4-11.7,8.5c-2.3,0.6-4.8,0.7-6.7,0c-0.9-0.3-1.8-0.8-2.4-1.5c-0.6-0.6-1.1-1.5-1.5-2.4
			c-0.6-1.7-0.7-3.7-0.6-5.8c0.1-1.2,0.2-2,0.4-2.9c0.1-0.4,0.2-0.9,0.4-1.4l0.3-0.6l0.3-0.6c1.8-3.4,5.4-6.1,9.2-7.6
			C54.6,60.5,59,60,62.7,61.6z M146.7,74c-0.4,0.2-0.8,0.6-1.2,0.9c-0.4,0.4-0.7,0.8-1,1.3c-2.5,4.2-7.1,7.4-11.7,8.5
			c-2.3,0.6-4.8,0.7-6.7,0c-0.9-0.3-1.8-0.8-2.4-1.5c-0.6-0.6-1.1-1.5-1.5-2.4c-0.6-1.7-0.7-3.7-0.6-5.8c0.1-1.2,0.2-2,0.4-2.9
			c0.1-0.4,0.2-0.9,0.4-1.4l0.3-0.6l0.3-0.6c1.8-3.4,5.4-6.1,9.2-7.6c3.8-1.5,8.4-2,12-0.5c1.7,0.8,3.2,2.2,3.9,4.1s0.8,4.3,0.5,6.6
			c-0.1,0.6,0.2,1.1,0.6,1.2C148.5,73.2,147.5,73.5,146.7,74z"/>
		<path class="st6" d="M131.6,35.2c-10.6-1.2-21.2-2.1-31.8-2.4l0.5-1.8c0.8-2.8,0.7-5.9-0.1-9.1c-0.1-0.2-1.5-0.6-1.6-0.4l0,0
			c-2.3,2.4-3.9,5-4.6,7.8L93,32.8c-1.4,0-2.8-0.1-4.2-0.1H62.5c-2.1,0-3.7,1.6-3.7,3.4c0,1.9,1.7,3.4,3.7,3.4h26.3
			c14.4,0,28.7-0.8,43-2.5C132.5,36.7,132.5,35.3,131.6,35.2z"/>
	</g>
</g>
</svg>
