<?xml version="1.0" encoding="utf-8"?>
<!-- Generator: Adobe Illustrator 24.0.1, SVG Export Plug-In . SVG Version: 6.00 Build 0)  -->
<svg version="1.1" id="Capa_1" xmlns="http://www.w3.org/2000/svg" xmlns:xlink="http://www.w3.org/1999/xlink" x="0px" y="0px"
	 viewBox="0 0 851.9 230" style="enable-background:new 0 0 851.9 230;" xml:space="preserve">
<style type="text/css">
	.st0{fill:#2B303B;}
	.st1{fill:#0CC652;}
	.st2{fill-rule:evenodd;clip-rule:evenodd;fill:#0CC652;}
	.st3{fill-rule:evenodd;clip-rule:evenodd;fill:#3C6BB5;}
	.st4{fill-rule:evenodd;clip-rule:evenodd;fill:#2B303B;}
</style>
<path class="st0" d="M331.7,187.9h-59.1v-27.2h8.7V62.5l-12.3-4.8c-1.1-0.6-2.5-1-4.3-1.5c-1.8-0.4-4.1-0.6-6.8-0.6
	c-4.3,0-6.5,3.7-6.5,11v17.6h18.4v27h-18.4v49.6h12.1v27.2h-60.3v-27.2h8.1v-49.6h-8.3v-27h8.3V66.6c0-2.9,0.4-6.5,1.1-10.9
	c0.7-4.4,2.5-8.5,5.3-12.5c2.8-4,6.8-7.4,12-10.3c5.3-2.8,12.5-4.2,21.6-4.2c4.3,0,8.9,0.3,13.8,1c4.9,0.7,9,1.6,12.3,2.7h42.3
	v128.3h11.9V187.9z"/>
<path class="st0" d="M442.4,173.6c-7.6,6.6-15.5,11.3-23.9,14c-8.4,2.7-17.8,4-28.3,4c-6.3,0-12.7-1.1-19-3.2
	c-6.3-2.1-12-5.5-17.1-10c-5.1-4.5-9.2-10.3-12.4-17.4c-3.2-7.1-4.9-15.7-4.9-25.6c0-8.4,1.4-16,4.2-22.7
	c2.8-6.7,6.7-12.4,11.5-17.1c4.9-4.7,10.6-8.3,17.2-10.7c6.6-2.4,13.8-3.6,21.4-3.6c8.4,0,15.7,1.2,22.1,3.7
	c6.4,2.5,11.8,5.9,16.1,10.4c4.3,4.4,7.5,9.6,9.7,15.7c2.2,6,3.2,12.5,3.2,19.6c0,2.8-0.2,5.5-0.6,8.2c-0.4,2.7-1,5.2-1.8,7.6h-63.7
	c0.3,1.4,0.7,3,1.3,5c0.6,1.9,1.6,3.8,3.1,5.6c1.5,1.8,3.5,3.3,6.1,4.6c2.6,1.2,6,1.9,10.3,1.9c1.7,0,3.7-0.1,5.8-0.2
	c2.1-0.1,4.3-0.6,6.8-1.2c2.4-0.7,5-1.7,7.7-3c2.7-1.3,5.4-3.1,8.1-5.5L442.4,173.6z M392.4,109.4c-3.1,0-5.6,0.6-7.6,1.9
	c-2,1.2-3.5,2.7-4.7,4.5c-1.1,1.7-2,3.6-2.4,5.5c-0.5,1.9-0.8,3.5-0.9,4.8h30.5c0-1.9-0.2-3.9-0.6-5.9c-0.4-2-1.1-3.8-2.1-5.4
	c-1-1.6-2.5-2.9-4.5-3.8C398.3,109.8,395.7,109.4,392.4,109.4z"/>
<path class="st0" d="M552,173.6c-7.6,6.6-15.5,11.3-23.9,14c-8.4,2.7-17.8,4-28.3,4c-6.3,0-12.7-1.1-19-3.2c-6.3-2.1-12-5.5-17.1-10
	c-5.1-4.5-9.2-10.3-12.4-17.4c-3.2-7.1-4.9-15.7-4.9-25.6c0-8.4,1.4-16,4.2-22.7c2.8-6.7,6.7-12.4,11.5-17.1
	c4.9-4.7,10.6-8.3,17.2-10.7c6.6-2.4,13.8-3.6,21.4-3.6c8.4,0,15.7,1.2,22.1,3.7c6.4,2.5,11.8,5.9,16.1,10.4
	c4.3,4.4,7.5,9.6,9.7,15.7c2.2,6,3.2,12.5,3.2,19.6c0,2.8-0.2,5.5-0.6,8.2c-0.4,2.7-1,5.2-1.8,7.6h-63.7c0.3,1.4,0.7,3,1.3,5
	c0.6,1.9,1.6,3.8,3.1,5.6c1.5,1.8,3.5,3.3,6.1,4.6c2.6,1.2,6,1.9,10.3,1.9c1.7,0,3.7-0.1,5.8-0.2c2.1-0.1,4.3-0.6,6.8-1.2
	c2.4-0.7,5-1.7,7.7-3c2.7-1.3,5.4-3.1,8.1-5.5L552,173.6z M502,109.4c-3.1,0-5.6,0.6-7.6,1.9c-2,1.2-3.5,2.7-4.7,4.5
	c-1.1,1.7-2,3.6-2.4,5.5c-0.5,1.9-0.8,3.5-0.9,4.8H517c0-1.9-0.2-3.9-0.6-5.9c-0.4-2-1.1-3.8-2.1-5.4c-1-1.6-2.5-2.9-4.5-3.8
	C507.9,109.8,505.3,109.4,502,109.4z"/>
<path class="st0" d="M558.1,84.3H569V65.2L606.2,53v31.3h19.2v27h-19.2v36.9c0,1,0,1.9-0.1,2.9c-0.1,1-0.1,2-0.1,3.1
	c0,2.8,0.4,5.2,1.1,7.4c0.7,2.1,2.6,3.2,5.6,3.2c1.3,0,3.3-0.4,6-1.1c2.6-0.8,4.9-1.6,6.8-2.4v26.5c-1.5,0.7-3.4,1.3-5.7,1.8
	c-2.3,0.5-4.7,0.9-7.1,1.1c-2.4,0.3-4.7,0.5-6.8,0.7c-2.1,0.2-3.7,0.3-5,0.3c-7.6,0-13.4-1-17.7-3.1c-4.2-2.1-7.4-5-9.4-8.7
	c-2-3.7-3.3-8.3-3.8-13.7c-0.5-5.4-0.9-11.4-1-18v-36.9h-10.9V84.3z"/>
<path class="st1" d="M692.5,187.9h-59.1v-27.2h8.7V59.2h-8.5V32.4h46.9v128.3h11.9V187.9z"/>
<path class="st1" d="M772.8,103.6h-9.3V77.3h51.4V103h-9.7l-38.4,95.8c-1.5,3.3-3.2,6.7-5.2,10.2c-2,3.5-4.6,6.6-7.8,9.4
	c-3.2,2.8-7.3,5.1-12.2,6.9c-4.9,1.8-11,2.7-18.3,2.7c-5.3-0.3-9.9-1.4-13.9-3.3c-4-1.9-7.5-4.3-10.6-7l15.2-24.5
	c1.9,1.8,4,3.5,6.4,5c2.4,1.5,4.7,2.3,7,2.3c2.7,0,5-1.2,7-3.5c2-2.4,3.4-4.9,4.3-7.7l2.8-8.7L702,103.8h-8.3V77.3H756v26.3h-9.5
	l13.1,32.3L772.8,103.6z"/>
<g>
	<path class="st2" d="M90.6,117.5c26.8,0,48.5-21.7,48.5-48.5c0-13.4-5.4-25.5-14.2-34.3c-8.8-8.8-20.9-14.2-34.3-14.2
		c-13.4,0-25.5,5.4-34.3,14.2C47.5,43.5,42.1,55.6,42.1,69C42.1,95.8,63.8,117.5,90.6,117.5L90.6,117.5z M136.6,114.9
		c-11.8,11.8-28,19-45.9,19c-17.9,0-34.2-7.3-45.9-19c-11.8-11.8-19-28-19-45.9s7.3-34.2,19-45.9c11.8-11.8,28-19,45.9-19
		c17.9,0,34.2,7.3,45.9,19c11.8,11.8,19,28,19,45.9S148.3,103.2,136.6,114.9z"/>
	<g>
		<path class="st3" d="M119.4,96.2c3,0,5.5-2.5,5.5-5.5c0-3-2.5-5.5-5.5-5.5c-3,0-5.5,2.5-5.5,5.5C113.9,93.8,116.4,96.2,119.4,96.2
			z"/>
		<path class="st4" d="M87.3,58.8h2.1h1.8v-6.6l13.3-4.3v10.9h6.9v9.4h-6.9v12.9c0,0.3,0,0.7,0,1c0,0.3,0,0.7,0,1.1
			c0,1,0.1,1.8,0.4,2.6c0.3,0.7,0.9,1.1,2,1.1c0.5,0,1.2-0.1,2.1-0.4c0.9-0.3,1.7-0.5,2.4-0.8v9.2c-0.5,0.2-1.2,0.4-2,0.6
			c-0.8,0.2-1.7,0.3-2.5,0.4c-0.9,0.1-1.7,0.2-2.4,0.3c-0.7,0.1-1.3,0.1-1.8,0.1c-2.7,0-4.8-0.4-6.3-1.1c-1.5-0.7-2.6-1.7-3.4-3
			c-0.7-1.3-1.2-2.9-1.4-4.8c-0.2-1.9-0.3-4-0.4-6.3V68.2h-1.8h-2.1h-4.5v17.3h4.3v9.5H65.6v-9.5h2.9V68.2h-3v-9.4h3v-6.1
			c0-1,0.1-2.3,0.4-3.8c0.3-1.5,0.9-3,1.9-4.4c1-1.4,2.4-2.6,4.3-3.6c1.9-1,4.5-1.5,7.7-1.5c0.9,0,1.9,0,3,0.1
			c1.1,0.1,2.1,0.2,3,0.4c1,0.2,1.9,0.4,2.7,0.6c0.8,0.2,1.5,0.4,1.9,0.7l-4.3,8.3c-0.4-0.2-0.9-0.4-1.6-0.5
			c-0.7-0.1-1.5-0.2-2.4-0.2c-1.5,0-2.3,1.3-2.3,3.8v6.1H87.3z"/>
	</g>
	<path class="st2" d="M86.5,216.4l-18.4,0.2c0.5,3.7,1,7.5,1.6,11.4h21C90.7,228,88.9,223.7,86.5,216.4z"/>
	<path class="st2" d="M66.7,203.6l16-0.2c-2.7-10.3-5.3-23.1-6.5-37.3l-10.3-1.4C65.3,176.2,65.5,189.1,66.7,203.6z"/>
	<path class="st2" d="M66.5,156.2l9.1,1.2c-0.3-6.5-0.2-13.1,0.3-19.9c-2.2-0.5-4.4-1.2-6.5-1.9C68.2,141.8,67.2,148.7,66.5,156.2z"
		/>
	<path class="st4" d="M31.5,228C28.4,184.6,39,150.7,52,126.2c-2.7-2.1-5.2-4.3-7.6-6.8C25.3,143.9,7.4,179.5,6.3,228H31.5z"/>
	<path class="st4" d="M99.7,138.6c1.2,25.1,8.7,56.8,32.1,89.4h33.1c-31.9-30.4-46.6-65.1-53.4-92.3C107.8,137,103.8,138,99.7,138.6
		z"/>
</g>
<path class="st0" d="M830.9,38.5c-11,0-20,9-20,20s9,20,20,20c11,0,20-9,20-20S841.9,38.5,830.9,38.5z M830.9,74.6
	c-8.9,0-16.1-7.2-16.1-16.1c0-8.9,7.2-16.1,16.1-16.1c8.9,0,16.1,7.2,16.1,16.1C847,67.4,839.8,74.6,830.9,74.6z M839.8,68
	c-4.3-7.8-4.1-7.4-4.3-7.7c2-1.1,3.2-3.4,3.2-5.9c0-4.2-2.4-6.9-8.2-6.9h-6.3c-0.5,0-1,0.4-1,1v20c0,0.5,0.4,1,1,1h3.1
	c0.5,0,1-0.4,1-1v-6.7h2.6l3.8,7.2c0.2,0.3,0.5,0.5,0.9,0.5h3.5C839.7,69.5,840.2,68.7,839.8,68L839.8,68z M831,57.2h-2.7V52h2.2
	c2.6,0,3.1,1,3.1,2.6C833.6,56.3,832.7,57.2,831,57.2z"/>
</svg>
