<?xml version="1.0" encoding="utf-8"?>
<!-- Generator: Adobe Illustrator 17.0.0, SVG Export Plug-In . SVG Version: 6.00 Build 0)  -->
<!DOCTYPE svg PUBLIC "-//W3C//DTD SVG 1.1//EN" "http://www.w3.org/Graphics/SVG/1.1/DTD/svg11.dtd">
<svg version="1.1" id="Layer_1" focusable="false" xmlns="http://www.w3.org/2000/svg" xmlns:xlink="http://www.w3.org/1999/xlink"
	 x="0px" y="0px" width="612px" height="704.948px" viewBox="0 40.5 612 704.948" enable-background="new 0 40.5 612 704.948"
	 xml:space="preserve">
<path fill="#343E49" d="M592.014,502.66c-38.25-36.365-67.402-74.424-67.402-203.408c0-108.739-86.568-197.397-196.714-208.135
	V67.143c0-12.071-9.786-21.857-21.857-21.857s-21.857,9.786-21.857,21.857v23.988C173.969,101.855,87.429,190.513,87.429,299.252
	c0,128.957-29.248,167.043-67.416,203.408C0.941,520.587-5.172,548.382,4.617,572.658c9.965,24.88,34.154,41.115,60.954,40.914
	h480.857c26.819,0.194,51.014-16.073,60.954-40.982C617.148,548.339,611.047,520.582,592.014,502.66z M546.429,569.857H65.571
	c-19.426,0-29.166-22.499-15.464-35.518c47.621-45.354,81.035-96.089,81.035-235.087c0-92.046,78.167-166.538,174.857-166.538
	s174.857,74.478,174.857,166.538c0,138.438,33.086,189.447,80.981,235.06C575.622,547.399,565.772,569.857,546.429,569.857z
	 M306,701c-24.143,0-43.714-19.572-43.714-43.714h-43.714c0,48.285,39.143,87.429,87.429,87.429s87.429-39.143,87.429-87.429
	h-43.714C349.714,681.428,330.143,701,306,701z M294.388,395h23.223c5.744-0.075,10.484-4.518,10.929-10.246l9.563-153
	c0.377-6.024-4.2-11.213-10.224-11.59c-0.235-0.015-0.469-0.022-0.704-0.021h-42.348c-6.036-0.012-10.938,4.872-10.95,10.907
	c0,0.235,0.007,0.47,0.021,0.704l9.563,153C283.821,390.522,288.61,395.011,294.388,395z M306,427.786
	c-18.107,0-32.786,14.679-32.786,32.786c0,18.107,14.679,32.786,32.786,32.786s32.786-14.679,32.786-32.786
	C338.786,442.464,324.107,427.786,306,427.786z"/>
</svg>
