<?xml version="1.0" standalone="no"?>
<!DOCTYPE svg PUBLIC "-//W3C//DTD SVG 20010904//EN"
 "http://www.w3.org/TR/2001/REC-SVG-20010904/DTD/svg10.dtd">
<svg version="1.0" xmlns="http://www.w3.org/2000/svg"
 width="512.000000pt" height="512.000000pt" viewBox="0 0 512.000000 512.000000"
 preserveAspectRatio="xMidYMid meet">

<g transform="translate(0.000000,512.000000) scale(0.100000,-0.100000)"
fill="#000000" stroke="none">
<path d="M1723 5105 c-189 -41 -341 -185 -397 -374 -21 -71 -21 -211 0 -282
41 -136 130 -251 246 -317 107 -62 185 -73 455 -70 233 3 239 4 272 27 57 41
61 63 61 329 0 257 -7 308 -57 411 -42 87 -142 185 -237 231 -118 58 -222 71
-343 45z"/>
<path d="M370 3707 c-168 -57 -275 -164 -338 -336 -30 -83 -33 -217 -7 -307
46 -160 166 -288 331 -352 l69 -27 715 -3 c505 -2 735 1 783 9 244 40 437 270
437 519 0 230 -167 446 -391 505 -45 12 -184 15 -794 15 -739 -1 -740 -1 -805
-23z"/>
<path d="M400 2346 c-304 -85 -471 -401 -366 -691 59 -164 196 -289 366 -335
71 -19 214 -15 291 9 133 42 252 146 313 275 50 104 56 151 56 409 0 260 -5
281 -69 324 -33 22 -40 23 -290 22 -171 0 -271 -5 -301 -13z"/>
<path d="M1780 2344 c-95 -25 -161 -64 -236 -138 -72 -72 -106 -126 -140 -226
-18 -52 -19 -96 -19 -795 0 -738 0 -740 22 -811 59 -186 211 -320 410 -361
163 -34 333 17 459 139 74 70 137 185 154 277 14 77 13 1444 -1 1513 -39 190
-196 354 -384 403 -73 19 -192 18 -265 -1z"/>
</g>
</svg>
