<?xml version="1.0" encoding="utf-8"?>
<!-- Generator: Adobe Illustrator 24.0.1, SVG Export Plug-In . SVG Version: 6.00 Build 0)  -->
<svg version="1.1" xmlns="http://www.w3.org/2000/svg" xmlns:xlink="http://www.w3.org/1999/xlink" x="0px" y="0px"
	 viewBox="0 0 459.7 403.4" style="enable-background:new 0 0 459.7 403.4;" xml:space="preserve">
<style type="text/css">
	.st0{fill:#FFFFFF;stroke:#535C6E;stroke-width:15;stroke-miterlimit:10;}
	.st1{fill:#FFFFFF;stroke:#FF003D;stroke-width:15;stroke-miterlimit:10;}
	.st2{display:none;}
	.st3{display:inline;}
	.st4{display:inline;fill:#FFFFFF;stroke:#FF003D;stroke-width:15;stroke-miterlimit:10;}
	.st5{fill:#FFFFFF;stroke:#0BA3DB;stroke-width:15;stroke-miterlimit:10;}
	.st6{fill:#FFFFFF;stroke:#E5A60C;stroke-width:15;stroke-miterlimit:10;}
	.st7{fill:#FF003D;}
	.st8{fill:none;stroke:#FFFFFF;stroke-width:4;stroke-miterlimit:10;}
	.st9{fill:#0BA3DB;}
	.st10{fill:#E5A60C;}
	.st11{fill:#E5A60C;stroke:#FFFFFF;stroke-width:4;stroke-miterlimit:10;}
	.st12{fill:#FF003D;stroke:#FF003D;stroke-miterlimit:10;}
	.st13{fill:#0BA3DB;stroke:#0BA3DB;stroke-miterlimit:10;}
	.st14{fill:#E5A60C;stroke:#E5A60C;stroke-miterlimit:10;}
	.st15{display:inline;fill:#FF003D;}
	.st16{display:inline;fill:#FFFFFF;}
	.st17{display:inline;fill:#0BA3DB;}
	.st18{display:inline;fill:#E5A60C;}
	.st19{fill:#FFFFFF;}
	.st20{fill:none;stroke:#FF003D;stroke-width:29;stroke-linecap:round;stroke-linejoin:round;stroke-miterlimit:10;}
	.st21{fill:none;stroke:#0BA3DB;stroke-width:29;stroke-linecap:round;stroke-linejoin:round;stroke-miterlimit:10;}
	.st22{fill:none;stroke:#E5A60C;stroke-width:29;stroke-linecap:round;stroke-linejoin:round;stroke-miterlimit:10;}
	.st23{fill:#2B303B;}
	.st24{opacity:0.4;fill:#535C6E;enable-background:new    ;}
	.st25{fill:#535C6E;}
	.st26{display:inline;fill:#FF003D;stroke:#CC1746;stroke-width:16;stroke-miterlimit:10;}
	.st27{display:inline;fill:#FFFFFF;stroke:#FF003D;stroke-width:9;stroke-miterlimit:10;}
	.st28{display:inline;fill:#FF003D;stroke:#FF003D;stroke-miterlimit:10;}
	.st29{display:inline;fill:#FFFFFF;stroke:#0BA3DB;stroke-width:9;stroke-miterlimit:10;}
	.st30{display:inline;fill:#FFFFFF;stroke:#E5A60C;stroke-width:9;stroke-miterlimit:10;}
</style>
<g id="idle">
	<g>
		<path class="st0" d="M65.6,10h329.5c30.5,0,55.1,27,55.1,60.2v193.4c0,33.3-22,60.2-55.1,60.2h-74.4c-14.6,0-28.7,6.3-39,17.6
			l-44,48.1c-3.6,3.9-9.5,3.9-13.1,0l-44.9-49c-10.3-11.3-24.4-17.6-39-17.6H65.6c-30.5,0-55.1-27-55.1-60.2V70.2
			C10.5,37,35.2,10,65.6,10z"/>
	</g>
	<path class="st1" d="M207.5,222"/>
	<path class="st1" d="M207.5,201.7"/>
	<path class="st1" d="M359.3,116.6"/>
</g>
<g id="High" class="st2">
	<g class="st3">
		<path class="st1" d="M65.6,10h329.5c30.5,0,55.1,27,55.1,60.2v193.4c0,33.3-22,60.2-55.1,60.2h-74.4c-14.6,0-28.7,6.3-39,17.6
			l-44,48.1c-3.6,3.9-9.5,3.9-13.1,0l-44.9-49c-10.3-11.3-24.4-17.6-39-17.6H65.6c-30.5,0-55.1-27-55.1-60.2V70.2
			C10.5,37,35.2,10,65.6,10z"/>
	</g>
	<path class="st4" d="M207.5,222"/>
	<path class="st4" d="M207.5,201.7"/>
	<path class="st4" d="M359.3,116.6"/>
</g>
<g id="Medium" class="st2">
	<g class="st3">
		<path class="st5" d="M65.6,10h329.5c30.5,0,55.1,27,55.1,60.2v193.4c0,33.3-24.7,60.2-55.1,60.2h-74.4c-14.6,0-28.7,6.3-39,17.6
			l-44,48.1c-3.6,3.9-9.5,3.9-13.1,0l-44.9-49c-10.3-11.3-24.4-17.6-39-17.6H65.6c-30.5,0-55.1-27-55.1-60.2V70.2
			C10.5,37,35.2,10,65.6,10z"/>
	</g>
</g>
<g id="Low" class="st2">
	<g class="st3">
		<path class="st6" d="M65.6,10h329.5c30.5,0,55.1,27,55.1,60.2v193.4c0,33.3-24.7,60.2-55.1,60.2h-74.4c-14.6,0-28.7,6.3-39,17.6
			l-44,48.1c-3.6,3.9-9.5,3.9-13.1,0l-44.9-49c-10.3-11.3-24.4-17.6-39-17.6H65.6c-30.5,0-55.1-27-55.1-60.2V70.2
			C10.5,37,35.2,10,65.6,10z"/>
	</g>
</g>
<g id="SuddenBraking3" class="st2">
	<g id="Low_2_" class="st3">
		<path class="st7" d="M93.9,142.7c85,31.7,56.3,54.4,114,80.1c37.3,16.7-8.6,10.2,27.2,26.5c7,10,43.5,28.8,60.4,30.5
			c5.3-10.5,6.9-17,10.3-25.7c2.2-5.9,8.9-15.5,14-24.6c11.3-21.3,4.2-14.1,6-32.4c1.8-20.3,1.3-3.9,19.6-10
			c10.3-21.3,26.5-51.8,34.6-73.8L314.5,48c-8.9,18.5-18.6,31.8-32.2,49.5c-35,45.7-20.1,25.9-14.7,48.9
			c-6.5,0.5-96.3-3.4-101.1-4.8c-13-4.3-27.2-12.6-39.3-15.9C114.2,122.1,93.9,128.3,93.9,142.7L93.9,142.7z M77.6,198.5
			c36.6,14.2,92.6,51.2,126.5,62.9c-7.8-20.3-9-13.5-26.1-25.5c-9.5-6.5-18.3-13.7-29-21.3c-15.7-11.3-47.5-35.9-60.5-41.4
			L77.6,198.5L77.6,198.5z"/>
		<path class="st7" d="M167.3,206l18.5,3.2c0.7-12.6-53.8-50.7-64.1-57.2L94,141.6c-9.1,15.5,17.2,31.4,30.6,41.2
			C133.4,189.1,158.4,204.5,167.3,206L167.3,206z"/>
		<path class="st7" d="M108.4,258.3l-1.8,13l19.8,12.8l17.7-42.7l-17.3-7.6c-0.6,0.5-1.3,0.9-1.6,2.2L108.4,258.3L108.4,258.3z"/>
		<line class="st8" x1="266.2" y1="145.7" x2="327.5" y2="187.3"/>
	</g>
</g>
<g id="SuddenBraking2" class="st2">
	<g id="Low_5_" class="st3">
		<path class="st9" d="M93.9,142.7c85,31.7,56.3,54.4,114,80.1c37.3,16.7-8.6,10.2,27.2,26.5c7,10,43.5,28.8,60.4,30.5
			c5.3-10.5,6.9-17,10.3-25.7c2.2-5.9,8.9-15.5,14-24.6c11.3-21.3,4.2-14.1,6-32.4c1.8-20.3,1.3-3.9,19.6-10
			c10.3-21.3,26.5-51.8,34.6-73.8L314.5,48c-8.9,18.5-18.6,31.8-32.2,49.5c-35,45.7-20.1,25.9-14.7,48.9
			c-6.5,0.5-96.3-3.4-101.1-4.8c-13-4.3-27.2-12.6-39.3-15.9C114.2,122.1,93.9,128.3,93.9,142.7L93.9,142.7z M77.6,198.5
			c36.6,14.2,92.6,51.2,126.5,62.9c-7.8-20.3-9-13.5-26.1-25.5c-9.5-6.5-18.3-13.7-29-21.3c-15.7-11.3-47.5-35.9-60.5-41.4
			L77.6,198.5L77.6,198.5z"/>
		<path class="st9" d="M167.3,206l18.5,3.2c0.7-12.6-53.8-50.7-64.1-57.2L94,141.6c-9.1,15.5,17.2,31.4,30.6,41.2
			C133.4,189.1,158.4,204.5,167.3,206L167.3,206z"/>
		<path class="st9" d="M108.4,258.3l-1.8,13l19.8,12.8l17.7-42.7l-17.3-7.6c-0.6,0.5-1.3,0.9-1.6,2.2L108.4,258.3L108.4,258.3z"/>
		<line class="st8" x1="266.2" y1="145.7" x2="327.5" y2="187.3"/>
	</g>
</g>
<g id="SuddenBraking1_1_" class="st2">
	<g id="Low_3_" class="st3">
		<path class="st10" d="M93.9,142.7c85,31.7,56.3,54.4,114,80.1c37.3,16.7-8.6,10.2,27.2,26.5c7,10,43.5,28.8,60.4,30.5
			c5.3-10.5,6.9-17,10.3-25.7c2.2-5.9,8.9-15.5,14-24.6c11.3-21.3,4.2-14.1,6-32.4c1.8-20.3,1.3-3.9,19.6-10
			c10.3-21.3,26.5-51.8,34.6-73.8L314.5,48c-8.9,18.5-18.6,31.8-32.2,49.5c-35,45.7-20.1,25.9-14.7,48.9
			c-6.5,0.5-96.3-3.4-101.1-4.8c-13-4.3-27.2-12.6-39.3-15.9C114.2,122.1,93.9,128.3,93.9,142.7L93.9,142.7z M77.6,198.5
			c36.6,14.2,92.6,51.2,126.5,62.9c-7.8-20.3-9-13.5-26.1-25.5c-9.5-6.5-18.3-13.7-29-21.3c-15.7-11.3-47.5-35.9-60.5-41.4
			L77.6,198.5L77.6,198.5z"/>
		<path class="st10" d="M167.3,206l18.5,3.2c0.7-12.6-53.8-50.7-64.1-57.2L94,141.6c-9.1,15.5,17.2,31.4,30.6,41.2
			C133.4,189.1,158.4,204.5,167.3,206L167.3,206z"/>
		<path class="st10" d="M108.4,258.3l-1.8,13l19.8,12.8l17.7-42.7l-17.3-7.6c-0.6,0.5-1.3,0.9-1.6,2.2L108.4,258.3L108.4,258.3z"/>
		<line class="st11" x1="266.2" y1="145.7" x2="327.5" y2="187.3"/>
	</g>
</g>
<g id="GShock3_1_" class="st2">
	<g class="st3">
		<path class="st7" d="M384.3,235.5v19.6c-8.1-1.9-14.6-5.3-20.2-8.3c-8.6-4.9-15.4-8.3-25.3-8.3c-0.4,0-0.4,0-0.4,0
			c-9.9,0.5-16.8,3.9-25.3,8.3c-8.5,4.4-19.8,10.3-34.3,10.3c-14.6,0-25.7-5.8-34.3-10.3c-8.6-4.9-15.4-8.3-25.3-8.3
			c-9.9,0.5-16.8,3.9-25.3,8.3c-5.6,2.9-12.4,6.4-20.2,8.3v-19.6c3.8-1.4,7.7-3.4,11.5-5.3c8.6-4.4,19.3-10.3,33.9-10.3
			s25.3,5.8,33.9,10.3c9.1,4.4,15.4,7.8,25.7,7.8c10.3,0,17.2-3.4,25.7-7.8c9.1-4.4,19.8-10.3,34.3-10.3h0.4
			c14.6,0,25.3,5.8,33.9,10.3C377,232.6,380.4,234.1,384.3,235.5z M181.3,221.8c-3.8,1.9-6.9,3.9-10.3,4.9l-5.6,2.5v6.9l-37.7-11.3
			l-2.2,9.8l-2.1,8.8c-0.8,3.4-3.5,5.3-6.4,4.4l-26.5-8.3c-3-0.5-4.7-3.9-3.8-7.3l2.1-9.3l15.9-67.4c1.7-7.3,3.8-12.7,9.1-19.6
			l51.4-68.4c4.3-5.8,12.4-9.8,19.8-10.3c2.2,0,4.7,0,6,0.5l93.9,28.8c9.1,2.9,17.6,13.6,19.3,24l14.6,88.4
			c0.8,5.8,0.8,10.3,0.4,14.7c-7.3,2.5-13.7,5.8-18.9,8.3c-1.3,0.9-2.2,1.4-3.5,1.9c-1.3-7.3-6-14.1-12.9-16.1
			c-9.5-2.9-18.4,3.4-21,13.6c-0.4,1.4-0.4,2.5-0.4,3.9c-1.7-0.9-3.8-1.9-6.4-3.4c-8.6-4.4-21-11.3-37.3-11.3
			C202.4,210.6,189.9,217.5,181.3,221.8z M139.7,163.2c-1.3-0.5-2.2-0.5-3.5-0.5s-2.2,0-3,0c-6.9,0.5-12.9,6.4-14.2,14.1
			c-2.6,10.3,3,21,12,24c9.1,2.9,18.4-3.4,21-13.6C154.3,176.9,148.8,166.1,139.7,163.2z M294.2,188.6l-9.9-61.1
			c-2.2-11.8-5.6-15.6-15-18.6l-72.9-22.5c-2.6-0.9-4.7-1.4-6.4-1.4c-0.8,0-1.3,0-2.2,0c-4.7,0-8.1,2.9-12.9,8.8l-35.2,47.4
			L294.2,188.6z M339.2,253.6h-0.4c-14.6,0-25.3,5.8-34.3,10.3c-9.1,4.5-15.4,7.8-25.7,7.8c-10.3,0-16.8-3.4-25.7-7.8
			c-8.6-4.9-19.3-10.3-33.9-10.3c-14.6,0-25.3,5.8-33.9,10.3c-3.8,1.9-7.7,3.9-11.5,5.3v19.6c7.7-1.9,14.6-5.3,20.2-8.3
			c8.6-4.4,15.4-8.3,25.3-8.3c9.8,0,16.8,3.9,25.3,8.3c8.6,4.4,19.8,10.3,34.3,10.3c14.6,0,25.7-5.3,34.3-10.3
			c8.6-4.4,15.4-8.3,25.3-8.3c0,0,0,0,0.4,0c9.9,0,16.8,3.9,25.3,8.3c5.6,2.9,12,6.4,20.2,8.3v-19.6c-3.8-1.4-7.3-2.9-11.2-5.3
			C364.5,259.4,353.8,253.6,339.2,253.6z"/>
	</g>
</g>
<g id="GShock2" class="st2">
	<g class="st3">
		<path class="st9" d="M384.3,235.5v19.6c-8.1-1.9-14.6-5.3-20.2-8.3c-8.6-4.9-15.4-8.3-25.3-8.3c-0.4,0-0.4,0-0.4,0
			c-9.9,0.5-16.8,3.9-25.3,8.3c-8.5,4.4-19.8,10.3-34.3,10.3c-14.6,0-25.7-5.8-34.3-10.3c-8.6-4.9-15.4-8.3-25.3-8.3
			c-9.9,0.5-16.8,3.9-25.3,8.3c-5.6,2.9-12.4,6.4-20.2,8.3v-19.6c3.8-1.4,7.7-3.4,11.5-5.3c8.6-4.4,19.3-10.3,33.9-10.3
			s25.3,5.8,33.9,10.3c9.1,4.4,15.4,7.8,25.7,7.8c10.3,0,17.2-3.4,25.7-7.8c9.1-4.4,19.8-10.3,34.3-10.3h0.4
			c14.6,0,25.3,5.8,33.9,10.3C377,232.6,380.4,234.1,384.3,235.5z M181.3,221.8c-3.8,1.9-6.9,3.9-10.3,4.9l-5.6,2.5v6.9l-37.7-11.3
			l-2.2,9.8l-2.1,8.8c-0.8,3.4-3.5,5.3-6.4,4.4l-26.5-8.3c-3-0.5-4.7-3.9-3.8-7.3l2.1-9.3l15.9-67.4c1.7-7.3,3.8-12.7,9.1-19.6
			l51.4-68.4c4.3-5.8,12.4-9.8,19.8-10.3c2.2,0,4.7,0,6,0.5l93.9,28.8c9.1,2.9,17.6,13.6,19.3,24l14.6,88.4
			c0.8,5.8,0.8,10.3,0.4,14.7c-7.3,2.5-13.7,5.8-18.9,8.3c-1.3,0.9-2.2,1.4-3.5,1.9c-1.3-7.3-6-14.1-12.9-16.1
			c-9.5-2.9-18.4,3.4-21,13.6c-0.4,1.4-0.4,2.5-0.4,3.9c-1.7-0.9-3.8-1.9-6.4-3.4c-8.6-4.4-21-11.3-37.3-11.3
			C202.4,210.6,189.9,217.5,181.3,221.8z M139.7,163.2c-1.3-0.5-2.2-0.5-3.5-0.5s-2.2,0-3,0c-6.9,0.5-12.9,6.4-14.2,14.1
			c-2.6,10.3,3,21,12,24c9.1,2.9,18.4-3.4,21-13.6C154.3,176.9,148.8,166.1,139.7,163.2z M294.2,188.6l-9.9-61.1
			c-2.2-11.8-5.6-15.6-15-18.6l-72.9-22.5c-2.6-0.9-4.7-1.4-6.4-1.4c-0.8,0-1.3,0-2.2,0c-4.7,0-8.1,2.9-12.9,8.8l-35.2,47.4
			L294.2,188.6z M339.2,253.6h-0.4c-14.6,0-25.3,5.8-34.3,10.3c-9.1,4.5-15.4,7.8-25.7,7.8c-10.3,0-16.8-3.4-25.7-7.8
			c-8.6-4.9-19.3-10.3-33.9-10.3c-14.6,0-25.3,5.8-33.9,10.3c-3.8,1.9-7.7,3.9-11.5,5.3v19.6c7.7-1.9,14.6-5.3,20.2-8.3
			c8.6-4.4,15.4-8.3,25.3-8.3c9.8,0,16.8,3.9,25.3,8.3c8.6,4.4,19.8,10.3,34.3,10.3c14.6,0,25.7-5.3,34.3-10.3
			c8.6-4.4,15.4-8.3,25.3-8.3c0,0,0,0,0.4,0c9.9,0,16.8,3.9,25.3,8.3c5.6,2.9,12,6.4,20.2,8.3v-19.6c-3.8-1.4-7.3-2.9-11.2-5.3
			C364.5,259.4,353.8,253.6,339.2,253.6z"/>
	</g>
</g>
<g id="GShock1" class="st2">
	<g class="st3">
		<path class="st10" d="M384.3,235.5v19.6c-8.1-1.9-14.6-5.3-20.2-8.3c-8.6-4.9-15.4-8.3-25.3-8.3c-0.4,0-0.4,0-0.4,0
			c-9.9,0.5-16.8,3.9-25.3,8.3c-8.5,4.4-19.8,10.3-34.3,10.3c-14.6,0-25.7-5.8-34.3-10.3c-8.6-4.9-15.4-8.3-25.3-8.3
			c-9.9,0.5-16.8,3.9-25.3,8.3c-5.6,2.9-12.4,6.4-20.2,8.3v-19.6c3.8-1.4,7.7-3.4,11.5-5.3c8.6-4.4,19.3-10.3,33.9-10.3
			s25.3,5.8,33.9,10.3c9.1,4.4,15.4,7.8,25.7,7.8c10.3,0,17.2-3.4,25.7-7.8c9.1-4.4,19.8-10.3,34.3-10.3h0.4
			c14.6,0,25.3,5.8,33.9,10.3C377,232.6,380.4,234.1,384.3,235.5z M181.3,221.8c-3.8,1.9-6.9,3.9-10.3,4.9l-5.6,2.5v6.9l-37.7-11.3
			l-2.2,9.8l-2.1,8.8c-0.8,3.4-3.5,5.3-6.4,4.4l-26.5-8.3c-3-0.5-4.7-3.9-3.8-7.3l2.1-9.3l15.9-67.4c1.7-7.3,3.8-12.7,9.1-19.6
			l51.4-68.4c4.3-5.8,12.4-9.8,19.8-10.3c2.2,0,4.7,0,6,0.5l93.9,28.8c9.1,2.9,17.6,13.6,19.3,24l14.6,88.4
			c0.8,5.8,0.8,10.3,0.4,14.7c-7.3,2.5-13.7,5.8-18.9,8.3c-1.3,0.9-2.2,1.4-3.5,1.9c-1.3-7.3-6-14.1-12.9-16.1
			c-9.5-2.9-18.4,3.4-21,13.6c-0.4,1.4-0.4,2.5-0.4,3.9c-1.7-0.9-3.8-1.9-6.4-3.4c-8.6-4.4-21-11.3-37.3-11.3
			C202.4,210.6,189.9,217.5,181.3,221.8z M139.7,163.2c-1.3-0.5-2.2-0.5-3.5-0.5s-2.2,0-3,0c-6.9,0.5-12.9,6.4-14.2,14.1
			c-2.6,10.3,3,21,12,24c9.1,2.9,18.4-3.4,21-13.6C154.3,176.9,148.8,166.1,139.7,163.2z M294.2,188.6l-9.9-61.1
			c-2.2-11.8-5.6-15.6-15-18.6l-72.9-22.5c-2.6-0.9-4.7-1.4-6.4-1.4c-0.8,0-1.3,0-2.2,0c-4.7,0-8.1,2.9-12.9,8.8l-35.2,47.4
			L294.2,188.6z M339.2,253.6h-0.4c-14.6,0-25.3,5.8-34.3,10.3c-9.1,4.5-15.4,7.8-25.7,7.8c-10.3,0-16.8-3.4-25.7-7.8
			c-8.6-4.9-19.3-10.3-33.9-10.3c-14.6,0-25.3,5.8-33.9,10.3c-3.8,1.9-7.7,3.9-11.5,5.3v19.6c7.7-1.9,14.6-5.3,20.2-8.3
			c8.6-4.4,15.4-8.3,25.3-8.3c9.8,0,16.8,3.9,25.3,8.3c8.6,4.4,19.8,10.3,34.3,10.3c14.6,0,25.7-5.3,34.3-10.3
			c8.6-4.4,15.4-8.3,25.3-8.3c0,0,0,0,0.4,0c9.9,0,16.8,3.9,25.3,8.3c5.6,2.9,12,6.4,20.2,8.3v-19.6c-3.8-1.4-7.3-2.9-11.2-5.3
			C364.5,259.4,353.8,253.6,339.2,253.6z"/>
	</g>
</g>
<g id="Speed3" class="st2">
	<g class="st3">
		<path class="st12" d="M403.5,153.2c-0.2-0.7-0.4-1.1-0.8-1.8c-0.2-0.4-0.8-1.5-1.3-2.2c-0.6-0.7-1.3-1.1-1.9-1.8l-1.5-1.1
			l-5.5-3.7l-11-7.5l-22.2-15l-11.2-7.5l-5.7-3.7l-3-2l-3-1.8C320.7,96.3,304,89.1,286.6,84c-17.3-5.1-35.3-8.4-53.7-8.6
			c-18.2-0.4-36.8,2.6-54.1,9.7l-6.6,2.6l-6.1,3.3c-4,2.2-8.5,4.6-12,7.7c-7.6,5.7-14.4,12.6-20.5,19.8c-0.4,0.4-0.6,0.9-1.1,1.3
			c-0.6-1.1-1.7-1.8-2.7-1.8h-28.3c-15.6,0-31.1,1.8-46.7,5.3c-1.1,0.2-1.1,3.5,0,3.7c15.4,3.5,31.1,5.3,46.7,5.3h22
			c-2.1,3.1-4,6.4-5.9,9.7c-1.1,2.2-2.3,4.4-3.4,6.6c-0.2,0-0.2,0-0.4,0h-19c-10.4,0-20.7,1.8-31.1,5.3c-0.4,0.2-0.4,0.9-0.4,1.8
			c0,0.9,0.2,1.8,0.4,1.8c10.4,3.5,20.7,5.3,31.1,5.3h13.9c-0.6,2.2-1.1,4.4-1.7,6.8c-0.6,3.1-0.8,6.2-1.1,9.5c0,0.2,0,0.2,0,0.4
			H93.5c-7,0-13.9,1.8-20.7,5.3c-0.4,0.2-0.4,3.5,0,3.7c7,3.5,13.9,5.3,20.7,5.3h12.7c0.2,0,0.4-0.2,0.6-0.4
			c0.4,4.2,1.1,8.4,2.1,12.8c0.2,1.5,0.8,3.1,1.3,4.6c0.2,0.9,0.4,1.5,0.8,2.4l1.1,2.4c1.3,3.1,4,6.8,7.4,9.3
			c0.4,0.4,1.1,0.7,1.5,0.9c-0.2,1.3-0.4,2.6-0.4,3.7c-0.4,5.7-0.2,12.1,1.9,18.3c1.5,3.7,3.6,7.5,6.6,10.6c3,3.1,6.6,5.1,10.4,6.4
			c7.4,2.6,14.8,2,21.6,0.2c6.8-1.8,13.1-4.8,18.6-8.8c5.7-4,10.6-9.3,14.4-15.4c0.4-0.9,0.8-1.5,1.3-2.4c2.3,0.2,4.9,0.4,7.2,0.4
			c22,1.3,43.7,0.4,65.3-0.7l23.5-1.5c0.2,3.7,0.8,7.5,2.1,11.2c1.5,3.7,3.6,7.5,6.6,10.6c3,3.1,6.6,5.1,10.4,6.4
			c7.4,2.6,14.8,2,21.6,0.2c6.8-1.8,13.1-4.8,18.6-8.8c5.7-4,10.6-9.3,14.4-15.4c0.8-1.5,1.5-3.1,1.9-4.6c0.2-1.5,0.4-3.1,0.2-4.2
			c-0.2-1.3-0.8-2.4-1.5-3.3c2.3-0.9,3.6-2,3.6-3.1c0-0.9-1.1-2-2.7-2.6c1.1-4.2,1.5-9,0.4-13.7c-1.1-5.9-5.1-11.2-10.1-14.3
			s-10.6-4.4-16.1-4.8c-5.5-0.2-11,0.4-16.3,2c-10.4,3.1-20.7,9.3-27.3,19.8l-1.3,2l-1.1,2.2c-0.6,1.3-1.3,2.9-1.7,4.4
			c-0.2,0.4-0.2,1.1-0.4,1.5l-25.6,1.8c-21.3,1.1-42.7,2-63.8,0.7c-2.7-0.2-5.5-0.2-8.2-0.4c1.3-4.6,1.9-9.7,0.6-14.8
			c-1.1-5.9-5.1-11.2-10.1-14.3c-5.1-3.1-10.6-4.4-16.1-4.8c-5.5-0.2-11,0.4-16.3,2c-10.4,3.1-20.5,9.3-27.1,19.8
			c-1.5-1.8-2.7-5.3-3.8-9.3c-1.3-4.8-1.9-10.4-2.5-15.6c-0.2-1.3-0.2-2.4-0.2-3.7c0-1.1-0.2-2.4,0-3.5c0.2-2.4,0.2-4.8,0.8-7.3
			c1.5-7.9,4.6-16.1,8.7-23.6c4-7.5,8.9-14.8,14.4-21.4c5.5-6.6,11.6-12.8,18.2-17.8c3.2-2.6,6.6-4.6,10.4-6.6l5.5-3.1l5.7-2.4
			c15.4-6.4,32.3-9.7,49.2-9.7s34,2.4,50.7,7c16.7,4.4,32.8,11,48.2,18.9l3,1.5l2.7,1.5l5.7,3.5l11.4,7l22.6,14.1l11.2,7l5.5,3.5
			l1.3,0.9c0.2,0.2,0.4,0.2,0.6,0.4l0.4,0.7l0.6,1.3c3.2,7.3,3.8,16.5,3.2,25.1c-0.8,8.8-3,17.4-6.8,25.1
			c-3.8,7.7-9.9,14.3-17.8,16.7l0,0c-4,1.1-6.3,1.8-6.3,2.6c0,0.7,2.3,2,7.2,0.9l0,0c4.6-1.1,8.9-3.5,12.3-6.8
			c3.6-3.1,6.3-7,8.9-11.2c4.6-8.4,7.4-17.4,8.7-26.9C407.3,172.5,407.3,162.6,403.5,153.2z M182.2,202.7c3.6,1.8,6.8,4.6,8.2,8.6
			s1.7,9,1.1,13.9c-0.2,1.3,0.4,2.2,1.3,2.4c-1.9-0.4-3.8,0-5.5,1.1c-0.8,0.4-1.7,1.3-2.5,2c-0.8,0.9-1.5,1.8-2.1,2.6
			c-5.3,8.8-14.8,15.4-24.5,17.8c-4.9,1.3-9.9,1.5-13.9,0c-1.9-0.7-3.8-1.8-5.1-3.1c-1.3-1.3-2.3-3.1-3.2-5.1
			c-1.3-3.5-1.5-7.7-1.3-12.1c0.2-2.4,0.4-4.2,0.8-6.2c0.2-0.9,0.4-2,0.8-2.9l0.6-1.3l0.6-1.3c3.8-7,11.2-12.8,19.2-15.9
			C165.3,200.5,174.6,199.4,182.2,202.7z M357.9,228.7c-0.8,0.4-1.7,1.3-2.5,2c-0.8,0.9-1.5,1.8-2.1,2.6
			c-5.3,8.8-14.8,15.4-24.5,17.8c-4.9,1.3-9.9,1.5-13.9,0c-1.9-0.7-3.8-1.8-5.1-3.1c-1.3-1.3-2.3-3.1-3.2-5.1
			c-1.3-3.5-1.5-7.7-1.3-12.1c0.2-2.4,0.4-4.2,0.8-6.2c0.2-0.9,0.4-2,0.8-2.9l0.6-1.3l0.6-1.3c3.8-7,11.2-12.8,19.2-15.9
			c8-3.1,17.5-4.2,25.2-1.1c3.6,1.8,6.8,4.6,8.2,8.6c1.5,4,1.7,9,1.1,13.9c-0.2,1.3,0.4,2.2,1.3,2.4
			C361.7,227,359.6,227.6,357.9,228.7z"/>
		<path class="st12" d="M326.4,147.5c-22.2-2.6-44.4-4.3-66.6-5l1.1-3.7c1.7-5.8,1.5-12.3-0.2-19c-0.2-0.4-3.2-1.3-3.4-0.9l0,0
			c-4.9,5-8.2,10.4-9.7,16.2l-1.9,7.3c-3,0-5.9-0.2-8.9-0.2h-55c-4.4,0-7.8,3.2-7.8,7.1s3.6,7.1,7.8,7.1h55c30,0,60-1.7,89.8-5.2
			C328.3,150.7,328.3,147.7,326.4,147.5z"/>
	</g>
</g>
<g id="Speed2" class="st2">
	<g class="st3">
		<path class="st13" d="M403.5,153.2c-0.2-0.7-0.4-1.1-0.8-1.8c-0.2-0.4-0.8-1.5-1.3-2.2c-0.6-0.7-1.3-1.1-1.9-1.8l-1.5-1.1
			l-5.5-3.7l-11-7.5l-22.2-15l-11.2-7.5l-5.7-3.7l-3-2l-3-1.8C320.7,96.3,304,89.1,286.6,84c-17.3-5.1-35.3-8.4-53.7-8.6
			c-18.2-0.4-36.8,2.6-54.1,9.7l-6.6,2.6l-6.1,3.3c-4,2.2-8.5,4.6-12,7.7c-7.6,5.7-14.4,12.6-20.5,19.8c-0.4,0.4-0.6,0.9-1.1,1.3
			c-0.6-1.1-1.7-1.8-2.7-1.8h-28.3c-15.6,0-31.1,1.8-46.7,5.3c-1.1,0.2-1.1,3.5,0,3.7c15.4,3.5,31.1,5.3,46.7,5.3h22
			c-2.1,3.1-4,6.4-5.9,9.7c-1.1,2.2-2.3,4.4-3.4,6.6c-0.2,0-0.2,0-0.4,0h-19c-10.4,0-20.7,1.8-31.1,5.3c-0.4,0.2-0.4,0.9-0.4,1.8
			c0,0.9,0.2,1.8,0.4,1.8c10.4,3.5,20.7,5.3,31.1,5.3h13.9c-0.6,2.2-1.1,4.4-1.7,6.8c-0.6,3.1-0.8,6.2-1.1,9.5c0,0.2,0,0.2,0,0.4
			H93.5c-7,0-13.9,1.8-20.7,5.3c-0.4,0.2-0.4,3.5,0,3.7c7,3.5,13.9,5.3,20.7,5.3h12.7c0.2,0,0.4-0.2,0.6-0.4
			c0.4,4.2,1.1,8.4,2.1,12.8c0.2,1.5,0.8,3.1,1.3,4.6c0.2,0.9,0.4,1.5,0.8,2.4l1.1,2.4c1.3,3.1,4,6.8,7.4,9.3
			c0.4,0.4,1.1,0.7,1.5,0.9c-0.2,1.3-0.4,2.6-0.4,3.7c-0.4,5.7-0.2,12.1,1.9,18.3c1.5,3.7,3.6,7.5,6.6,10.6c3,3.1,6.6,5.1,10.4,6.4
			c7.4,2.6,14.8,2,21.6,0.2c6.8-1.8,13.1-4.8,18.6-8.8c5.7-4,10.6-9.3,14.4-15.4c0.4-0.9,0.8-1.5,1.3-2.4c2.3,0.2,4.9,0.4,7.2,0.4
			c22,1.3,43.7,0.4,65.3-0.7l23.5-1.5c0.2,3.7,0.8,7.5,2.1,11.2c1.5,3.7,3.6,7.5,6.6,10.6c3,3.1,6.6,5.1,10.4,6.4
			c7.4,2.6,14.8,2,21.6,0.2c6.8-1.8,13.1-4.8,18.6-8.8c5.7-4,10.6-9.3,14.4-15.4c0.8-1.5,1.5-3.1,1.9-4.6c0.2-1.5,0.4-3.1,0.2-4.2
			c-0.2-1.3-0.8-2.4-1.5-3.3c2.3-0.9,3.6-2,3.6-3.1c0-0.9-1.1-2-2.7-2.6c1.1-4.2,1.5-9,0.4-13.7c-1.1-5.9-5.1-11.2-10.1-14.3
			s-10.6-4.4-16.1-4.8c-5.5-0.2-11,0.4-16.3,2c-10.4,3.1-20.7,9.3-27.3,19.8l-1.3,2l-1.1,2.2c-0.6,1.3-1.3,2.9-1.7,4.4
			c-0.2,0.4-0.2,1.1-0.4,1.5l-25.6,1.8c-21.3,1.1-42.7,2-63.8,0.7c-2.7-0.2-5.5-0.2-8.2-0.4c1.3-4.6,1.9-9.7,0.6-14.8
			c-1.1-5.9-5.1-11.2-10.1-14.3c-5.1-3.1-10.6-4.4-16.1-4.8c-5.5-0.2-11,0.4-16.3,2c-10.4,3.1-20.5,9.3-27.1,19.8
			c-1.5-1.8-2.7-5.3-3.8-9.3c-1.3-4.8-1.9-10.4-2.5-15.6c-0.2-1.3-0.2-2.4-0.2-3.7c0-1.1-0.2-2.4,0-3.5c0.2-2.4,0.2-4.8,0.8-7.3
			c1.5-7.9,4.6-16.1,8.7-23.6c4-7.5,8.9-14.8,14.4-21.4c5.5-6.6,11.6-12.8,18.2-17.8c3.2-2.6,6.6-4.6,10.4-6.6l5.5-3.1l5.7-2.4
			c15.4-6.4,32.3-9.7,49.2-9.7s34,2.4,50.7,7c16.7,4.4,32.8,11,48.2,18.9l3,1.5l2.7,1.5l5.7,3.5l11.4,7l22.6,14.1l11.2,7l5.5,3.5
			l1.3,0.9c0.2,0.2,0.4,0.2,0.6,0.4l0.4,0.7l0.6,1.3c3.2,7.3,3.8,16.5,3.2,25.1c-0.8,8.8-3,17.4-6.8,25.1
			c-3.8,7.7-9.9,14.3-17.8,16.7l0,0c-4,1.1-6.3,1.8-6.3,2.6c0,0.7,2.3,2,7.2,0.9l0,0c4.6-1.1,8.9-3.5,12.3-6.8
			c3.6-3.1,6.3-7,8.9-11.2c4.6-8.4,7.4-17.4,8.7-26.9C407.3,172.5,407.3,162.6,403.5,153.2z M182.2,202.7c3.6,1.8,6.8,4.6,8.2,8.6
			s1.7,9,1.1,13.9c-0.2,1.3,0.4,2.2,1.3,2.4c-1.9-0.4-3.8,0-5.5,1.1c-0.8,0.4-1.7,1.3-2.5,2c-0.8,0.9-1.5,1.8-2.1,2.6
			c-5.3,8.8-14.8,15.4-24.5,17.8c-4.9,1.3-9.9,1.5-13.9,0c-1.9-0.7-3.8-1.8-5.1-3.1c-1.3-1.3-2.3-3.1-3.2-5.1
			c-1.3-3.5-1.5-7.7-1.3-12.1c0.2-2.4,0.4-4.2,0.8-6.2c0.2-0.9,0.4-2,0.8-2.9l0.6-1.3l0.6-1.3c3.8-7,11.2-12.8,19.2-15.9
			C165.3,200.5,174.6,199.4,182.2,202.7z M357.9,228.7c-0.8,0.4-1.7,1.3-2.5,2c-0.8,0.9-1.5,1.8-2.1,2.6
			c-5.3,8.8-14.8,15.4-24.5,17.8c-4.9,1.3-9.9,1.5-13.9,0c-1.9-0.7-3.8-1.8-5.1-3.1c-1.3-1.3-2.3-3.1-3.2-5.1
			c-1.3-3.5-1.5-7.7-1.3-12.1c0.2-2.4,0.4-4.2,0.8-6.2c0.2-0.9,0.4-2,0.8-2.9l0.6-1.3l0.6-1.3c3.8-7,11.2-12.8,19.2-15.9
			c8-3.1,17.5-4.2,25.2-1.1c3.6,1.8,6.8,4.6,8.2,8.6c1.5,4,1.7,9,1.1,13.9c-0.2,1.3,0.4,2.2,1.3,2.4
			C361.7,227,359.6,227.6,357.9,228.7z"/>
		<path class="st13" d="M326.4,147.5c-22.2-2.6-44.4-4.3-66.6-5l1.1-3.7c1.7-5.8,1.5-12.3-0.2-19c-0.2-0.4-3.2-1.3-3.4-0.9l0,0
			c-4.9,5-8.2,10.4-9.7,16.2l-1.9,7.3c-3,0-5.9-0.2-8.9-0.2h-55c-4.4,0-7.8,3.2-7.8,7.1s3.6,7.1,7.8,7.1h55c30,0,60-1.7,89.8-5.2
			C328.3,150.7,328.3,147.7,326.4,147.5z"/>
	</g>
</g>
<g id="Speed1" class="st2">
	<g class="st3">
		<path class="st14" d="M403.5,153.2c-0.2-0.7-0.4-1.1-0.8-1.8c-0.2-0.4-0.8-1.5-1.3-2.2c-0.6-0.7-1.3-1.1-1.9-1.8l-1.5-1.1
			l-5.5-3.7l-11-7.5l-22.2-15l-11.2-7.5l-5.7-3.7l-3-2l-3-1.8C320.7,96.3,304,89.1,286.6,84c-17.3-5.1-35.3-8.4-53.7-8.6
			c-18.2-0.4-36.8,2.6-54.1,9.7l-6.6,2.6l-6.1,3.3c-4,2.2-8.5,4.6-12,7.7c-7.6,5.7-14.4,12.6-20.5,19.8c-0.4,0.4-0.6,0.9-1.1,1.3
			c-0.6-1.1-1.7-1.8-2.7-1.8h-28.3c-15.6,0-31.1,1.8-46.7,5.3c-1.1,0.2-1.1,3.5,0,3.7c15.4,3.5,31.1,5.3,46.7,5.3h22
			c-2.1,3.1-4,6.4-5.9,9.7c-1.1,2.2-2.3,4.4-3.4,6.6c-0.2,0-0.2,0-0.4,0h-19c-10.4,0-20.7,1.8-31.1,5.3c-0.4,0.2-0.4,0.9-0.4,1.8
			c0,0.9,0.2,1.8,0.4,1.8c10.4,3.5,20.7,5.3,31.1,5.3h13.9c-0.6,2.2-1.1,4.4-1.7,6.8c-0.6,3.1-0.8,6.2-1.1,9.5c0,0.2,0,0.2,0,0.4
			H93.5c-7,0-13.9,1.8-20.7,5.3c-0.4,0.2-0.4,3.5,0,3.7c7,3.5,13.9,5.3,20.7,5.3h12.7c0.2,0,0.4-0.2,0.6-0.4
			c0.4,4.2,1.1,8.4,2.1,12.8c0.2,1.5,0.8,3.1,1.3,4.6c0.2,0.9,0.4,1.5,0.8,2.4l1.1,2.4c1.3,3.1,4,6.8,7.4,9.3
			c0.4,0.4,1.1,0.7,1.5,0.9c-0.2,1.3-0.4,2.6-0.4,3.7c-0.4,5.7-0.2,12.1,1.9,18.3c1.5,3.7,3.6,7.5,6.6,10.6c3,3.1,6.6,5.1,10.4,6.4
			c7.4,2.6,14.8,2,21.6,0.2c6.8-1.8,13.1-4.8,18.6-8.8c5.7-4,10.6-9.3,14.4-15.4c0.4-0.9,0.8-1.5,1.3-2.4c2.3,0.2,4.9,0.4,7.2,0.4
			c22,1.3,43.7,0.4,65.3-0.7l23.5-1.5c0.2,3.7,0.8,7.5,2.1,11.2c1.5,3.7,3.6,7.5,6.6,10.6c3,3.1,6.6,5.1,10.4,6.4
			c7.4,2.6,14.8,2,21.6,0.2c6.8-1.8,13.1-4.8,18.6-8.8c5.7-4,10.6-9.3,14.4-15.4c0.8-1.5,1.5-3.1,1.9-4.6c0.2-1.5,0.4-3.1,0.2-4.2
			c-0.2-1.3-0.8-2.4-1.5-3.3c2.3-0.9,3.6-2,3.6-3.1c0-0.9-1.1-2-2.7-2.6c1.1-4.2,1.5-9,0.4-13.7c-1.1-5.9-5.1-11.2-10.1-14.3
			s-10.6-4.4-16.1-4.8c-5.5-0.2-11,0.4-16.3,2c-10.4,3.1-20.7,9.3-27.3,19.8l-1.3,2l-1.1,2.2c-0.6,1.3-1.3,2.9-1.7,4.4
			c-0.2,0.4-0.2,1.1-0.4,1.5l-25.6,1.8c-21.3,1.1-42.7,2-63.8,0.7c-2.7-0.2-5.5-0.2-8.2-0.4c1.3-4.6,1.9-9.7,0.6-14.8
			c-1.1-5.9-5.1-11.2-10.1-14.3c-5.1-3.1-10.6-4.4-16.1-4.8c-5.5-0.2-11,0.4-16.3,2c-10.4,3.1-20.5,9.3-27.1,19.8
			c-1.5-1.8-2.7-5.3-3.8-9.3c-1.3-4.8-1.9-10.4-2.5-15.6c-0.2-1.3-0.2-2.4-0.2-3.7c0-1.1-0.2-2.4,0-3.5c0.2-2.4,0.2-4.8,0.8-7.3
			c1.5-7.9,4.6-16.1,8.7-23.6c4-7.5,8.9-14.8,14.4-21.4c5.5-6.6,11.6-12.8,18.2-17.8c3.2-2.6,6.6-4.6,10.4-6.6l5.5-3.1l5.7-2.4
			c15.4-6.4,32.3-9.7,49.2-9.7s34,2.4,50.7,7c16.7,4.4,32.8,11,48.2,18.9l3,1.5l2.7,1.5l5.7,3.5l11.4,7l22.6,14.1l11.2,7l5.5,3.5
			l1.3,0.9c0.2,0.2,0.4,0.2,0.6,0.4l0.4,0.7l0.6,1.3c3.2,7.3,3.8,16.5,3.2,25.1c-0.8,8.8-3,17.4-6.8,25.1
			c-3.8,7.7-9.9,14.3-17.8,16.7l0,0c-4,1.1-6.3,1.8-6.3,2.6c0,0.7,2.3,2,7.2,0.9l0,0c4.6-1.1,8.9-3.5,12.3-6.8
			c3.6-3.1,6.3-7,8.9-11.2c4.6-8.4,7.4-17.4,8.7-26.9C407.3,172.5,407.3,162.6,403.5,153.2z M182.2,202.7c3.6,1.8,6.8,4.6,8.2,8.6
			s1.7,9,1.1,13.9c-0.2,1.3,0.4,2.2,1.3,2.4c-1.9-0.4-3.8,0-5.5,1.1c-0.8,0.4-1.7,1.3-2.5,2c-0.8,0.9-1.5,1.8-2.1,2.6
			c-5.3,8.8-14.8,15.4-24.5,17.8c-4.9,1.3-9.9,1.5-13.9,0c-1.9-0.7-3.8-1.8-5.1-3.1c-1.3-1.3-2.3-3.1-3.2-5.1
			c-1.3-3.5-1.5-7.7-1.3-12.1c0.2-2.4,0.4-4.2,0.8-6.2c0.2-0.9,0.4-2,0.8-2.9l0.6-1.3l0.6-1.3c3.8-7,11.2-12.8,19.2-15.9
			C165.3,200.5,174.6,199.4,182.2,202.7z M357.9,228.7c-0.8,0.4-1.7,1.3-2.5,2c-0.8,0.9-1.5,1.8-2.1,2.6
			c-5.3,8.8-14.8,15.4-24.5,17.8c-4.9,1.3-9.9,1.5-13.9,0c-1.9-0.7-3.8-1.8-5.1-3.1c-1.3-1.3-2.3-3.1-3.2-5.1
			c-1.3-3.5-1.5-7.7-1.3-12.1c0.2-2.4,0.4-4.2,0.8-6.2c0.2-0.9,0.4-2,0.8-2.9l0.6-1.3l0.6-1.3c3.8-7,11.2-12.8,19.2-15.9
			c8-3.1,17.5-4.2,25.2-1.1c3.6,1.8,6.8,4.6,8.2,8.6c1.5,4,1.7,9,1.1,13.9c-0.2,1.3,0.4,2.2,1.3,2.4
			C361.7,227,359.6,227.6,357.9,228.7z"/>
		<path class="st14" d="M326.4,147.5c-22.2-2.6-44.4-4.3-66.6-5l1.1-3.7c1.7-5.8,1.5-12.3-0.2-19c-0.2-0.4-3.2-1.3-3.4-0.9l0,0
			c-4.9,5-8.2,10.4-9.7,16.2l-1.9,7.3c-3,0-5.9-0.2-8.9-0.2h-55c-4.4,0-7.8,3.2-7.8,7.1s3.6,7.1,7.8,7.1h55c30,0,60-1.7,89.8-5.2
			C328.3,150.7,328.3,147.7,326.4,147.5z"/>
	</g>
</g>
<g id="SuddenAcceleration3" class="st2">
	<path class="st15" d="M324.2,179c1.3-1.4,2.7-2.8,4-4.1c11.5-11.6,23.4-22.7,35.7-33.5c4.8-4.2,9.4-8.5,13.9-12.9
		c-33.7-49.4-95.8-79.1-163-71.9C120,66.7,50.9,146.2,60.4,234.1c0.7,6.5,1.8,12.8,3.3,19c2.3-65.5,56.4-121.7,128.5-129.4
		C245.9,117.8,295.7,140.6,324.2,179z"/>
	<polygon class="st15" points="408.5,235 177.6,236.5 174.8,268.9 	"/>
	<polyline class="st15" points="324.8,182.3 385.1,142.5 389.9,152.4 327.3,187.2 	"/>
	<polyline class="st15" points="331.8,193.9 398.1,165.3 401.1,175.9 333.5,199.2 	"/>
	<polyline class="st15" points="338.2,206.8 405.3,189.2 406.6,199.6 339.1,212.1 	"/>
	<polyline class="st15" points="341.3,219 408,211.5 407.8,221.7 341.4,224.1 	"/>
	<circle class="st15" cx="207.6" cy="246" r="41.8"/>
	<circle class="st16" cx="208" cy="245.7" r="19.6"/>
</g>
<g id="SuddenAcceleration2" class="st2">
	<path class="st17" d="M324.2,179c1.3-1.4,2.7-2.8,4-4.1c11.5-11.6,23.4-22.7,35.7-33.5c4.8-4.2,9.4-8.5,13.9-12.9
		c-33.7-49.4-95.8-79.1-163-71.9C120,66.7,50.9,146.2,60.4,234.1c0.7,6.5,1.8,12.8,3.3,19c2.3-65.5,56.4-121.7,128.5-129.4
		C245.9,117.8,295.7,140.6,324.2,179z"/>
	<polygon class="st17" points="408.5,235 177.6,236.5 174.8,268.9 	"/>
	<polyline class="st17" points="324.8,182.3 385.1,142.5 389.9,152.4 327.3,187.2 	"/>
	<polyline class="st17" points="331.8,193.9 398.1,165.3 401.1,175.9 333.5,199.2 	"/>
	<polyline class="st17" points="338.2,206.8 405.3,189.2 406.6,199.6 339.1,212.1 	"/>
	<polyline class="st17" points="341.3,219 408,211.5 407.8,221.7 341.4,224.1 	"/>
	<circle class="st17" cx="207.6" cy="246" r="41.8"/>
	<circle class="st16" cx="208" cy="245.7" r="19.6"/>
</g>
<g id="SuddenAcceleration1_1_" class="st2">
	<path class="st18" d="M324.2,179c1.3-1.4,2.7-2.8,4-4.1c11.5-11.6,23.4-22.7,35.7-33.5c4.8-4.2,9.4-8.5,13.9-12.9
		c-33.7-49.4-95.8-79.1-163-71.9C120,66.7,50.9,146.2,60.4,234.1c0.7,6.5,1.8,12.8,3.3,19c2.3-65.5,56.4-121.7,128.5-129.4
		C245.9,117.8,295.7,140.6,324.2,179z"/>
	<polygon class="st18" points="408.5,235 177.6,236.5 174.8,268.9 	"/>
	<polyline class="st18" points="324.8,182.3 385.1,142.5 389.9,152.4 327.3,187.2 	"/>
	<polyline class="st18" points="331.8,193.9 398.1,165.3 401.1,175.9 333.5,199.2 	"/>
	<polyline class="st18" points="338.2,206.8 405.3,189.2 406.6,199.6 339.1,212.1 	"/>
	<polyline class="st18" points="341.3,219 408,211.5 407.8,221.7 341.4,224.1 	"/>
	<g class="st3">
		<circle class="st10" cx="207.6" cy="246" r="41.8"/>
		<circle class="st19" cx="208" cy="245.7" r="19.6"/>
	</g>
</g>
<g id="Emergency3" class="st2">
	<g class="st3">
		<path class="st7" d="M160.9,161.6v86.2c-9.7,3.2-16.7,11.7-16.7,21.7v23h183.2v-23c0-10-7-18.5-16.7-21.7v-86.2
			c0-38.1-33.6-69-75-69S160.9,123.5,160.9,161.6z M310.8,277.1H160.9v-7.7c0-4.2,3.7-7.7,8.3-7.7h133.3c4.6,0,8.3,3.4,8.3,7.7
			V277.1z M235.9,107.9c32.2,0,58.3,24.1,58.3,53.7v84.9H177.6v-84.9C177.6,132,203.7,107.9,235.9,107.9z"/>
		<path class="st7" d="M227.5,138.6h16.7v46h-16.7V138.6z"/>
		<path class="st7" d="M227.5,199.9h16.7v15.3h-16.7V199.9z"/>
		<path class="st7" d="M106.4,153.9h33.9v14.6h-33.9V153.9z"/>
		<path class="st7" d="M329.2,153.9h33.9v15.3h-33.9V153.9z"/>
		<path class="st7" d="M321.9,66l11.8,10.8l-23.6,21.7l-11.8-10.8L321.9,66z"/>
		<path class="st7" d="M163.1,102.7L139.6,81l11.8-10.8l23.6,21.7L163.1,102.7z"/>
		<path class="st7" d="M227.5,45.8h16.7V77h-16.7V45.8z"/>
	</g>
</g>
<g id="Emergency2" class="st2">
	<g class="st3">
		<path class="st9" d="M160.9,161.6v86.2c-9.7,3.2-16.7,11.7-16.7,21.7v23h183.2v-23c0-10-7-18.5-16.7-21.7v-86.2
			c0-38.1-33.6-69-75-69S160.9,123.5,160.9,161.6z M310.8,277.1H160.9v-7.7c0-4.2,3.7-7.7,8.3-7.7h133.3c4.6,0,8.3,3.4,8.3,7.7
			V277.1z M235.9,107.9c32.2,0,58.3,24.1,58.3,53.7v84.9H177.6v-84.9C177.6,132,203.7,107.9,235.9,107.9z"/>
		<path class="st9" d="M227.5,138.6h16.7v46h-16.7V138.6z"/>
		<path class="st9" d="M227.5,199.9h16.7v15.3h-16.7V199.9z"/>
		<path class="st9" d="M106.4,153.9h33.9v14.6h-33.9V153.9z"/>
		<path class="st9" d="M329.2,153.9h33.9v15.3h-33.9V153.9z"/>
		<path class="st9" d="M321.9,66l11.8,10.8l-23.6,21.7l-11.8-10.8L321.9,66z"/>
		<path class="st9" d="M163.1,102.7L139.6,81l11.8-10.8l23.6,21.7L163.1,102.7z"/>
		<path class="st9" d="M227.5,45.8h16.7V77h-16.7V45.8z"/>
	</g>
</g>
<g id="Emergency1_1_" class="st2">
	<g class="st3">
		<path class="st10" d="M160.9,161.6v86.2c-9.7,3.2-16.7,11.7-16.7,21.7v23h183.2v-23c0-10-7-18.5-16.7-21.7v-86.2
			c0-38.1-33.6-69-75-69S160.9,123.5,160.9,161.6z M310.8,277.1H160.9v-7.7c0-4.2,3.7-7.7,8.3-7.7h133.3c4.6,0,8.3,3.4,8.3,7.7
			V277.1z M235.9,107.9c32.2,0,58.3,24.1,58.3,53.7v84.9H177.6v-84.9C177.6,132,203.7,107.9,235.9,107.9z"/>
		<path class="st10" d="M227.5,138.6h16.7v46h-16.7V138.6z"/>
		<path class="st10" d="M227.5,199.9h16.7v15.3h-16.7V199.9z"/>
		<path class="st10" d="M106.4,153.9h33.9v14.6h-33.9V153.9z"/>
		<path class="st10" d="M329.2,153.9h33.9v15.3h-33.9V153.9z"/>
		<path class="st10" d="M321.9,66l11.8,10.8l-23.6,21.7l-11.8-10.8L321.9,66z"/>
		<path class="st10" d="M163.1,102.7L139.6,81l11.8-10.8l23.6,21.7L163.1,102.7z"/>
		<path class="st10" d="M227.5,45.8h16.7V77h-16.7V45.8z"/>
	</g>
</g>
<g id="SuddenTurn3" class="st2">
	<path class="st15" d="M230,53.7c-65.1,0-117.8,52.8-117.8,117.8S165,289.3,230,289.3s117.8-52.8,117.8-117.8S295.1,53.7,230,53.7z
		 M230,76.5c48.5,0,88.6,36.6,94.3,83.6h-40.2c-6.1-15.5-21.2-26.6-38.9-26.6h-30.4c-17.7,0-32.7,11.1-38.9,26.6h-40.2
		C141.4,113.1,181.5,76.5,230,76.5z M230,204.8l-33.7-33.7c1.9-8.4,9.5-14.8,18.5-14.8h30.4c9,0,16.6,6.3,18.5,14.8L230,204.8z
		 M135.8,182.9h40.1l42.7,42.7v40.1C175.4,260.6,141,226.2,135.8,182.9z M241.4,265.8v-40.1l42.7-42.7h40.1
		C319.1,226.2,284.7,260.6,241.4,265.8z"/>
	<g class="st3">
		<path class="st20" d="M341.8,72.2c0,0,48.1,36,48.1,99.3c0,60.8-46.5,99.3-46.5,99.3"/>
		<polygon class="st20" points="341.8,270.8 361.5,264.7 346.3,250.7 		"/>
	</g>
	<g class="st3">
		<path class="st20" d="M122.8,72.2c0,0-48.1,36-48.1,99.3c0,60.8,46.5,99.3,46.5,99.3"/>
		<polygon class="st20" points="122.8,270.8 103.2,264.7 118.3,250.7 		"/>
	</g>
</g>
<g id="SuddenTurn2" class="st2">
	<path class="st17" d="M230,53.7c-65.1,0-117.8,52.8-117.8,117.8S165,289.3,230,289.3s117.8-52.8,117.8-117.8S295.1,53.7,230,53.7z
		 M230,76.5c48.5,0,88.6,36.6,94.3,83.6h-40.2c-6.1-15.5-21.2-26.6-38.9-26.6h-30.4c-17.7,0-32.7,11.1-38.9,26.6h-40.2
		C141.4,113.1,181.5,76.5,230,76.5z M230,204.8l-33.7-33.7c1.9-8.4,9.5-14.8,18.5-14.8h30.4c9,0,16.6,6.3,18.5,14.8L230,204.8z
		 M135.8,182.9h40.1l42.7,42.7v40.1C175.4,260.6,141,226.2,135.8,182.9z M241.4,265.8v-40.1l42.7-42.7h40.1
		C319.1,226.2,284.7,260.6,241.4,265.8z"/>
	<g class="st3">
		<path class="st21" d="M341.8,72.2c0,0,48.1,36,48.1,99.3c0,60.8-46.5,99.3-46.5,99.3"/>
		<polygon class="st21" points="341.8,270.8 361.5,264.7 346.3,250.7 		"/>
	</g>
	<g class="st3">
		<path class="st21" d="M122.8,72.2c0,0-48.1,36-48.1,99.3c0,60.8,46.5,99.3,46.5,99.3"/>
		<polygon class="st21" points="122.8,270.8 103.2,264.7 118.3,250.7 		"/>
	</g>
</g>
<g id="SuddenTurn1_1_" class="st2">
	<path class="st18" d="M230,53.7c-65.1,0-117.8,52.8-117.8,117.8S165,289.3,230,289.3s117.8-52.8,117.8-117.8S295.1,53.7,230,53.7z
		 M230,76.5c48.5,0,88.6,36.6,94.3,83.6h-40.2c-6.1-15.5-21.2-26.6-38.9-26.6h-30.4c-17.7,0-32.7,11.1-38.9,26.6h-40.2
		C141.4,113.1,181.5,76.5,230,76.5z M230,204.8l-33.7-33.7c1.9-8.4,9.5-14.8,18.5-14.8h30.4c9,0,16.6,6.3,18.5,14.8L230,204.8z
		 M135.8,182.9h40.1l42.7,42.7v40.1C175.4,260.6,141,226.2,135.8,182.9z M241.4,265.8v-40.1l42.7-42.7h40.1
		C319.1,226.2,284.7,260.6,241.4,265.8z"/>
	<g class="st3">
		<path class="st22" d="M341.8,72.2c0,0,48.1,36,48.1,99.3c0,60.8-46.5,99.3-46.5,99.3"/>
		<polygon class="st22" points="341.8,270.8 361.5,264.7 346.3,250.7 		"/>
	</g>
	<g class="st3">
		<path class="st22" d="M122.8,72.2c0,0-48.1,36-48.1,99.3c0,60.8,46.5,99.3,46.5,99.3"/>
		<polygon class="st22" points="122.8,270.8 103.2,264.7 118.3,250.7 		"/>
	</g>
</g>
<g id="Snapshot3" class="st2">
	<path class="st15" d="M182,78.1h-58.6c-1.7,0-3-1.4-3-3.2V55.8c0-1.7,1.4-3.2,3-3.2H182c1.7,0,3,1.4,3,3.2v19.1
		C185,76.7,183.6,78.1,182,78.1z M362.7,78.1v186.5c0,14-10.9,25.4-24.2,25.4H128.4c-13.4,0-24.2-11.4-24.2-25.4V112
		c0-14,10.9-25.4,24.2-25.4h68.7l17-23.7c4.6-6.4,11.8-10.2,19.4-10.2h105C351.9,52.7,362.7,64.1,362.7,78.1z M338.5,112H128.4
		v152.6h210.1V112z M338.5,78.1h-105l-6.1,8.5h111.1V78.1z M294.1,188.3c0-35.1-27.2-63.6-60.6-63.6s-60.6,28.5-60.6,63.6
		s27.2,63.6,60.6,63.6S294.1,223.4,294.1,188.3z M269.8,188.3c0,21-16.3,38.1-36.4,38.1s-36.4-17.1-36.4-38.1s16.3-38.1,36.4-38.1
		S269.8,167.3,269.8,188.3z M221.3,188.3c0-7,5.5-12.7,12.1-12.7c4.4,0,8.1-3.8,8.1-8.5c0-4.7-3.6-8.5-8.1-8.5
		c-15.6,0-28.3,13.3-28.3,29.7c0,4.7,3.6,8.5,8.1,8.5C217.7,196.8,221.3,192.9,221.3,188.3z"/>
</g>
<g id="Snapshot2" class="st2">
	<path class="st17" d="M182,78.1h-58.6c-1.7,0-3-1.4-3-3.2V55.8c0-1.7,1.4-3.2,3-3.2H182c1.7,0,3,1.4,3,3.2v19.1
		C185,76.7,183.6,78.1,182,78.1z M362.7,78.1v186.5c0,14-10.9,25.4-24.2,25.4H128.4c-13.4,0-24.2-11.4-24.2-25.4V112
		c0-14,10.9-25.4,24.2-25.4h68.7l17-23.7c4.6-6.4,11.8-10.2,19.4-10.2h105C351.9,52.7,362.7,64.1,362.7,78.1z M338.5,112H128.4
		v152.6h210.1V112z M338.5,78.1h-105l-6.1,8.5h111.1V78.1z M294.1,188.3c0-35.1-27.2-63.6-60.6-63.6s-60.6,28.5-60.6,63.6
		s27.2,63.6,60.6,63.6S294.1,223.4,294.1,188.3z M269.8,188.3c0,21-16.3,38.1-36.4,38.1s-36.4-17.1-36.4-38.1s16.3-38.1,36.4-38.1
		S269.8,167.3,269.8,188.3z M221.3,188.3c0-7,5.5-12.7,12.1-12.7c4.4,0,8.1-3.8,8.1-8.5c0-4.7-3.6-8.5-8.1-8.5
		c-15.6,0-28.3,13.3-28.3,29.7c0,4.7,3.6,8.5,8.1,8.5C217.7,196.8,221.3,192.9,221.3,188.3z"/>
</g>
<g id="Snapshot1_1_" class="st2">
	<path class="st18" d="M182,78.1h-58.6c-1.7,0-3-1.4-3-3.2V55.8c0-1.7,1.4-3.2,3-3.2H182c1.7,0,3,1.4,3,3.2v19.1
		C185,76.7,183.6,78.1,182,78.1z M362.7,78.1v186.5c0,14-10.9,25.4-24.2,25.4H128.4c-13.4,0-24.2-11.4-24.2-25.4V112
		c0-14,10.9-25.4,24.2-25.4h68.7l17-23.7c4.6-6.4,11.8-10.2,19.4-10.2h105C351.9,52.7,362.7,64.1,362.7,78.1z M338.5,112H128.4
		v152.6h210.1V112z M338.5,78.1h-105l-6.1,8.5h111.1V78.1z M294.1,188.3c0-35.1-27.2-63.6-60.6-63.6s-60.6,28.5-60.6,63.6
		s27.2,63.6,60.6,63.6S294.1,223.4,294.1,188.3z M269.8,188.3c0,21-16.3,38.1-36.4,38.1s-36.4-17.1-36.4-38.1s16.3-38.1,36.4-38.1
		S269.8,167.3,269.8,188.3z M221.3,188.3c0-7,5.5-12.7,12.1-12.7c4.4,0,8.1-3.8,8.1-8.5c0-4.7-3.6-8.5-8.1-8.5
		c-15.6,0-28.3,13.3-28.3,29.7c0,4.7,3.6,8.5,8.1,8.5C217.7,196.8,221.3,192.9,221.3,188.3z"/>
</g>
<g id="EnterArea3" class="st2">
	<path class="st15" d="M197.6,0v168h-67.2l100.8,134.4L332.1,168h-67.2V0H197.6z M127.8,256.7c-0.7,0.1-1.4,0.3-2.1,0.5
		c-30.6,5.2-56.3,12.8-76.1,23.1c-9.9,5.1-18.6,11.2-25.2,18.4S12.8,315.4,12.8,326c0,16,10.5,28.4,23.1,37.3s28.9,15.7,48.3,21.5
		c38.8,11.6,90.2,18.4,147,18.4s108.2-6.8,147-18.4c19.4-5.8,35.7-12.6,48.3-21.5c12.6-8.9,23.1-21.3,23.1-37.3
		c0-10.6-4.9-20.1-11.6-27.3c-6.7-7.2-15.2-13.2-25.2-18.4c-20-10.3-46.8-17.9-78.2-23.1c-9-2.2-18.1,3.3-20.3,12.3
		c-2.2,9,3.3,18.1,12.3,20.3c0.9,0.2,1.8,0.4,2.7,0.4c29,4.8,53,12.1,68.3,20c7.6,3.9,13,8,15.8,11c2.8,3,2.6,4.4,2.6,4.7
		c0,0.8-1,4.4-8.9,10c-7.9,5.6-21.2,11.7-38.3,16.8c-34.3,10.2-83.5,16.8-137.6,16.8S128,363.1,93.7,352.8
		c-17.1-5.1-30.5-11.2-38.3-16.8s-8.9-9.1-8.9-10c0-0.3-0.2-1.7,2.6-4.7c2.8-3,8.2-7.1,15.8-11c15.1-7.8,38.5-15.1,66.7-20
		c9.3-1,16-9.4,15-18.6S137.1,255.7,127.8,256.7z"/>
</g>
<g id="ExitArea3" class="st2">
	<path class="st15" d="M230.3,5l-103,137.4h68.7v171.7h68.7V142.4h68.7L230.3,5z M124.5,250.3c-0.7,0.1-1.4,0.3-2.1,0.5
		c-31.3,5.4-57.6,13.1-77.8,23.6c-10.1,5.2-19,11.4-25.8,18.8S7,310.2,7,321.1c0,16.3,10.7,29,23.6,38.1c12.9,9.1,29.5,16.1,49.4,22
		C119.6,393,172.2,400,230.3,400s110.6-6.9,150.3-18.8c19.8-5.9,36.5-12.9,49.4-22c12.9-9.1,23.6-21.8,23.6-38.1
		c0-10.9-5-20.5-11.8-27.9s-15.5-13.5-25.8-18.8c-20.5-10.5-47.8-18.3-80-23.6c-9.2-2.3-18.5,3.4-20.8,12.6
		c-2.3,9.2,3.4,18.5,12.6,20.8c0.9,0.2,1.9,0.4,2.8,0.4c29.7,4.9,54.2,12.4,69.8,20.4c7.8,4,13.3,8.2,16.1,11.3s2.7,4.5,2.7,4.8
		c0,0.9-1.1,4.5-9.1,10.2c-8.1,5.7-21.6,11.9-39.2,17.2c-35.1,10.5-85.3,17.2-140.6,17.2s-105.6-6.7-140.6-17.2
		c-17.5-5.2-31.1-11.5-39.2-17.2c-8.1-5.7-9.1-9.3-9.1-10.2c0-0.3-0.2-1.7,2.7-4.8c2.8-3.1,8.4-7.3,16.1-11.3
		c15.4-8,39.3-15.5,68.2-20.4c9.5-1,16.3-9.6,15.3-19.1C142.5,256.1,134,249.2,124.5,250.3z"/>
</g>
<g id="Unknown" class="st2">
	<g class="st3">
		<path class="st23" d="M353.6,244c-10.7-11.4-30.6-28.7-30.6-85.1c0-42.8-30-77.1-70.5-85.6V61.9c0-9.7-7.9-17.6-17.6-17.6
			c-9.7,0-17.6,7.9-17.6,17.6v11.5c-40.5,8.4-70.5,42.7-70.5,85.6c0,56.4-19.9,73.6-30.6,85.1c-3.3,3.6-4.8,7.8-4.7,12
			c0.1,9,7.2,17.6,17.7,17.6h211.6c10.5,0,17.6-8.6,17.7-17.6C358.4,251.8,356.9,247.5,353.6,244L353.6,244z M148.6,247.1
			c11.7-15.4,24.5-41,24.6-87.9c0-0.1,0-0.2,0-0.3c0-34.1,27.6-61.8,61.8-61.8s61.8,27.6,61.8,61.8c0,0.1,0,0.2,0,0.3
			c0.1,46.9,12.9,72.5,24.6,87.9H148.6z M234.8,326.5c19.5,0,35.3-15.8,35.3-35.3h-70.5C199.6,310.7,215.4,326.5,234.8,326.5z"/>
		<path class="st23" d="M235.3,122c-17.3,0-28.6,7.1-37.4,19.8c-1.6,2.3-1.1,5.4,1.1,7.1l9.4,7.1c2.3,1.7,5.5,1.3,7.2-0.9
			c5.4-6.8,9.5-10.7,18-10.7c6.7,0,14.9,4.3,14.9,10.8c0,4.9-4,7.4-10.6,11.1c-7.7,4.3-17.9,9.7-17.9,23.1v2.1
			c0,2.9,2.3,5.2,5.2,5.2H241c2.9,0,5.2-2.3,5.2-5.2v-1.3c0-9.3,27.2-9.7,27.2-34.9C273.4,136.4,253.7,122,235.3,122z M233.1,203.1
			c-8.3,0-15,6.7-15,15c0,8.3,6.7,15,15,15s15-6.7,15-15S241.4,203.1,233.1,203.1z"/>
	</g>
</g>
<g id="Low_battery3" class="st2">
	<path class="st15" d="M166.8,240.8H80.6v-86.2h86.2V240.8z M393.1,122.2H48.3v150.9h344.8V230h21.5v-64.7h-21.5V122.2 M393.1,89.9
		c17.9,0,32.3,14.5,32.3,32.3V133h5.4c8.9,0,16.2,7.2,16.2,16.2v97c0,8.9-7.2,16.2-16.2,16.2h-5.4v10.8c0,17.9-14.5,32.3-32.3,32.3
		H48.3c-17.9,0-32.3-14.5-32.3-32.3V122.2c0-17.9,14.5-32.3,32.3-32.3H393.1z"/>
</g>
<g id="Low_battery2" class="st2">
	<path class="st17" d="M166.8,240.8H80.6v-86.2h86.2V240.8z M393.1,122.2H48.3v150.9h344.8V230h21.5v-64.7h-21.5V122.2 M393.1,89.9
		c17.9,0,32.3,14.5,32.3,32.3V133h5.4c8.9,0,16.2,7.2,16.2,16.2v97c0,8.9-7.2,16.2-16.2,16.2h-5.4v10.8c0,17.9-14.5,32.3-32.3,32.3
		H48.3c-17.9,0-32.3-14.5-32.3-32.3V122.2c0-17.9,14.5-32.3,32.3-32.3H393.1z"/>
</g>
<g id="Low_battery1" class="st2">
	<path class="st18" d="M166.8,240.8H80.6v-86.2h86.2V240.8z M393.1,122.2H48.3v150.9h344.8V230h21.5v-64.7h-21.5V122.2 M393.1,89.9
		c17.9,0,32.3,14.5,32.3,32.3V133h5.4c8.9,0,16.2,7.2,16.2,16.2v97c0,8.9-7.2,16.2-16.2,16.2h-5.4v10.8c0,17.9-14.5,32.3-32.3,32.3
		H48.3c-17.9,0-32.3-14.5-32.3-32.3V122.2c0-17.9,14.5-32.3,32.3-32.3H393.1z"/>
</g>
<g id="PowerCut" class="st2">
	<g class="st3">
		<path class="st23" d="M701.5,0.7c-5.2,1.7-7.6,3.7-10.3,8.3l-1.7,2.9L689.2,44L689,76.1h-13.7h-13.7v46.6v46.6l44.8,22.2
			c51.8,25.7,78.7,39,85.2,42.1l4.6,2.2l3-2.1c4.2-2.9,10.6-9.3,14.1-13.9c6.5-8.7,11.1-18.9,13.2-29.7c1.1-5.6,1.4-19.7,1.4-67.9
			l0-45.6l-13.7-0.1l-13.7-0.1L800.2,44l-0.3-32.3L798.3,9c-2.1-3.5-4.7-5.9-8.2-7.6c-2.4-1.1-3.2-1.3-6.3-1.3
			c-2.9,0-3.9,0.2-5.8,1.1c-3.3,1.6-6.2,4.1-8.2,7l-1.7,2.6v25.8c0,14.2-0.1,29-0.3,32.9l-0.3,7.1l-23.1-0.1l-23.1-0.1l-0.2-31.9
			c-0.1-19.8-0.4-32.5-0.7-33.4c-0.7-2.4-1.6-3.9-3.9-6.1C712.2,0.6,706.5-1,701.5,0.7L701.5,0.7z"/>
		<path class="st23" d="M613.6,176.3c-0.1,0.1-0.3,10.5-0.3,22.9v22.6L746.2,288c73,36.4,133.1,66.2,133.4,66.3
			c0.4,0.2,0.6-2.9,0.6-14.6c0-8.2-0.1-18.6-0.3-23.3l-0.3-8.5l-58.4-29C667.7,202.5,614,176,613.6,176.3L613.6,176.3z"/>
		<path class="st23" d="M723.9,343.2c0.2,20.3,0.4,39,0.6,41.6c0.4,5.8,1.4,8.1,5.5,12.2c6.7,6.8,16.3,8.3,24.6,3.8
			c3.1-1.6,6.9-5.7,8.5-9.1c1.8-3.6,2-6.7,2.3-38.3l0.3-26.6l-20.7-10.3c-11.4-5.7-20.9-10.3-21.1-10.3
			C723.8,306.3,723.7,320.6,723.9,343.2L723.9,343.2z"/>
	</g>
</g>
<g id="UserReq">
	<g>
		<g>
			<path class="st24" d="M205,248.2l8.6-36.4l-16.4-28.8h49.3L230,211.8l8.6,36.4l-16.8,33.5L205,248.2z M221.8,166.6
				c36.3,0,65.8-29.5,65.8-65.8s-29.5-65.8-65.8-65.8S156,64.5,156,100.8S185.5,166.6,221.8,166.6z"/>
			<path class="st25" d="M271,183.4l-49.2,98.4l-49.2-98.4c-36.6,1.7-65.9,31.7-65.9,68.8v21.4c0,13.6,11,24.7,24.7,24.7l0,0h180.9
				c13.6,0,24.7-11,24.7-24.7l0,0v-21.4C336.9,215.1,307.7,185.1,271,183.4L271,183.4z"/>
		</g>
	</g>
</g>
<g id="Vibration" class="st2">
	<g class="st3">
		<g>
			<g>
				<path class="st7" d="M905.9,226L705.6,25.6c-4.5-4.5-10.8-7-17-7.1c-6.2,0-12.5,2.5-17,7L567.4,129.8c-4.5,4.5-7.1,10.6-7.1,17
					s2.5,12.5,7,17l200.4,200.4c4.5,4.5,10.6,7.1,17,7.1s12.5-2.5,17-7L905.9,260c4.5-4.5,7.1-10.6,7.1-17
					C913,236.6,910.5,230.5,905.9,226z M578.7,152.5c-1.5-1.5-2.3-3.5-2.3-5.7c0-2.1,0.8-4.2,2.3-5.7L682.9,37
					c1.5-1.5,3.5-2.3,5.7-2.3c2.1,0,4.2,0.8,5.7,2.3l174.7,174.7L753.4,327.2L578.7,152.5z M894.6,248.7L790.4,352.9
					c-3,3-8.3,3-11.3,0l-14.4-14.4L880.3,223l14.4,14.4l0,0c1.5,1.5,2.3,3.5,2.3,5.7C897,245.2,896.1,247.2,894.6,248.7z"/>
				<path class="st7" d="M835.2,277.4l-16,16c-3.1,3.1-3.1,8.2,0,11.3c1.6,1.6,3.6,2.3,5.7,2.3c2.1,0,4.1-0.8,5.7-2.3l16-16
					c3.1-3.1,3.1-8.2,0-11.3C843.4,274.3,838.3,274.3,835.2,277.4z"/>
				<path class="st7" d="M642.8,85.1l-16,16c-3.1,3.1-3.1,8.2,0,11.3c1.6,1.6,3.6,2.3,5.7,2.3s4.1-0.8,5.7-2.3l16-16
					c3.1-3.1,3.1-8.2,0-11.3C651,81.9,646,81.9,642.8,85.1z"/>
				<circle class="st7" cx="688.6" cy="50.7" r="8"/>
				<path class="st7" d="M670.1,322.4c-13.3-6.6-25.2-15.2-35.4-25.5c-10.3-10.3-18.8-22.2-25.5-35.4c-2-4-6.8-5.6-10.8-3.6
					c-4,2-5.6,6.8-3.6,10.8c7.4,14.8,17,28.1,28.5,39.6c11.5,11.5,24.8,21.1,39.6,28.5c1.2,0.6,2.4,0.8,3.6,0.8
					c2.9,0,5.8-1.6,7.2-4.4C675.7,329.2,674.1,324.4,670.1,322.4z"/>
				<path class="st7" d="M655.8,351.1c-16.4-8.2-31.1-18.8-43.8-31.4c-12.7-12.7-23.3-27.4-31.4-43.8c-2-4-6.8-5.6-10.8-3.6
					c-4,2-5.6,6.8-3.6,10.8c9,17.9,20.5,34,34.4,48c13.9,13.9,30,25.5,47.9,34.4c1.2,0.6,2.4,0.8,3.6,0.8c2.9,0,5.8-1.6,7.2-4.4
					C661.3,357.9,659.7,353,655.8,351.1z"/>
				<path class="st7" d="M817.6,38.8c16.4,8.2,31.1,18.8,43.8,31.4c12.7,12.7,23.3,27.4,31.4,43.8c1.4,2.8,4.2,4.4,7.2,4.4
					c1.2,0,2.4-0.3,3.6-0.8c4-2,5.6-6.8,3.6-10.8c-9-17.9-20.5-34-34.4-48c-13.9-13.9-30-25.5-48-34.4c-4-2-8.8-0.4-10.8,3.6
					C812,32,813.6,36.8,817.6,38.8z"/>
				<path class="st7" d="M803.2,67.5c13.3,6.6,25.2,15.2,35.4,25.5c10.3,10.3,18.8,22.2,25.5,35.4c1.4,2.8,4.2,4.4,7.2,4.4
					c1.2,0,2.4-0.3,3.6-0.8c4-2,5.6-6.8,3.6-10.8c-7.4-14.8-17-28.1-28.5-39.6c-11.5-11.5-24.8-21.1-39.6-28.5
					c-4-2-8.8-0.4-10.8,3.6C797.7,60.7,799.3,65.5,803.2,67.5z"/>
			</g>
		</g>
	</g>
</g>
<g id="System" class="st2">
	<path class="st15" d="M354.3,38.1H108.6C95,38.1,84,49.1,84,62.7v147.4c0,13.6,11,24.6,24.6,24.6h245.7c13.6,0,24.6-11,24.6-24.6
		V62.7C378.8,49.1,367.8,38.1,354.3,38.1z M108.6,65.7c0-1.7,1.4-3.1,3.1-3.1h239.6c1.7,0,3.1,1.4,3.1,3.1v119.8H108.6V65.7z
		 M329.7,287.9c0,6.8-5.5,12.3-12.3,12.3h-172c-6.8,0-12.3-5.5-12.3-12.3s5.5-12.3,12.3-12.3h50.5l9.5-28.6c0.8-2.5,3.2-4.2,5.8-4.2
		h40.3c2.7,0,5,1.7,5.8,4.2l9.5,28.6h50.5C324.2,275.6,329.7,281.1,329.7,287.9z"/>
</g>
<g id="Layer_33" class="st2">
	<path class="st15" d="M287.7,91V32.9H265V91h-70.4V32.9h-22.7V91h-45.4v113.9c0,36.9,30.6,67,68.1,67h23.8v46.9h22.7v-46.9H265
		c37.6,0,68.1-30.1,68.1-67V91H287.7z M310.4,204.9c0,24.6-20.4,44.7-45.4,44.7h-70.4c-25,0-45.4-20-45.4-44.7v-91.6h161.2V204.9z
		 M232.5,189.8h-39.5l25-55.3h24.8l-14.6,32.9h39.5l-24.4,50.3l-19.9,11.2v-21.2L232.5,189.8z"/>
	<line class="st26" x1="173.3" y1="121.3" x2="281.7" y2="229.7"/>
</g>
<g id="Layer_32" class="st2">
	<path class="st15" d="M291.9,93.6V32.9h-23.7v60.7h-73.6V32.9h-23.7v60.7h-47.5v119.1c0,38.6,31.9,70.1,71.2,70.1h24.9v49h23.7v-49
		h24.9c39.3,0,71.2-31.4,71.2-70.1V93.6H291.9z M315.7,212.7c0,25.8-21.3,46.7-47.5,46.7h-73.6c-26.2,0-47.5-21-47.5-46.7V117h168.5
		V212.7z M234.2,196.9h-41.3l26.1-57.8h25.9l-15.3,34.4h41.3l-25.5,52.5l-20.8,11.7v-22.2L234.2,196.9z"/>
</g>
<g id="sdcard3" class="st2">
	<path class="st27" d="M792.7,35.7H673.2l-79.7,79.7v199.2c0,22,17.9,39.8,39.8,39.8h159.3c22,0,39.8-17.9,39.8-39.8v-239
		C832.6,53.5,814.7,35.7,792.7,35.7z M693.2,135.2h-29.9V75.5h29.9V135.2z M743,135.2h-29.9V75.5H743V135.2z M792.7,135.2h-29.9
		V75.5h29.9V135.2z"/>
	<circle class="st27" cx="805.9" cy="267.9" r="95.2"/>
	<path class="st28" d="M858.4,271.5l-36,36c-3.2,3.2-8.8,1-8.8-3.6v-20.6h-29.1c-2.8,0-5.1-2.3-5.1-5.1v-20.6c0-2.8,2.3-5.1,5.1-5.1
		h29.1v-20.6c0-4.6,5.5-6.9,8.8-3.6l36,36C860.3,266.2,860.3,269.5,858.4,271.5z M793,306.4v-8.6c0-1.4-1.2-2.6-2.6-2.6h-18
		c-3.8,0-6.9-3.1-6.9-6.9v-41.1c0-3.8,3.1-6.9,6.9-6.9h18c1.4,0,2.6-1.2,2.6-2.6v-8.6c0-1.4-1.2-2.6-2.6-2.6h-18
		c-11.4,0-20.6,9.2-20.6,20.6v41.1c0,11.4,9.2,20.6,20.6,20.6h18C791.8,309,793,307.8,793,306.4z"/>
</g>
<g id="sdcard2_1_" class="st2">
	<path class="st29" d="M792.7,35.7H673.2l-79.7,79.7v199.2c0,22,17.9,39.8,39.8,39.8h159.3c22,0,39.8-17.9,39.8-39.8v-239
		C832.6,53.5,814.7,35.7,792.7,35.7z M693.2,135.2h-29.9V75.5h29.9V135.2z M743,135.2h-29.9V75.5H743V135.2z M792.7,135.2h-29.9
		V75.5h29.9V135.2z"/>
	<circle class="st29" cx="805.9" cy="267.9" r="95.2"/>
	<path class="st17" d="M858.4,271.5l-36,36c-3.2,3.2-8.8,1-8.8-3.6v-20.6h-29.1c-2.8,0-5.1-2.3-5.1-5.1v-20.6c0-2.8,2.3-5.1,5.1-5.1
		h29.1v-20.6c0-4.6,5.5-6.9,8.8-3.6l36,36C860.3,266.2,860.3,269.5,858.4,271.5z M793,306.4v-8.6c0-1.4-1.2-2.6-2.6-2.6h-18
		c-3.8,0-6.9-3.1-6.9-6.9v-41.1c0-3.8,3.1-6.9,6.9-6.9h18c1.4,0,2.6-1.2,2.6-2.6v-8.6c0-1.4-1.2-2.6-2.6-2.6h-18
		c-11.4,0-20.6,9.2-20.6,20.6v41.1c0,11.4,9.2,20.6,20.6,20.6h18C791.8,309,793,307.8,793,306.4z"/>
</g>
<g id="sdcard1" class="st2">
	<path class="st30" d="M792.7,35.7H673.2l-79.7,79.7v199.2c0,22,17.9,39.8,39.8,39.8h159.3c22,0,39.8-17.9,39.8-39.8v-239
		C832.6,53.5,814.7,35.7,792.7,35.7z M693.2,135.2h-29.9V75.5h29.9V135.2z M743,135.2h-29.9V75.5H743V135.2z M792.7,135.2h-29.9
		V75.5h29.9V135.2z"/>
	<circle class="st30" cx="805.9" cy="267.9" r="95.2"/>
	<path class="st18" d="M858.4,271.5l-36,36c-3.2,3.2-8.8,1-8.8-3.6v-20.6h-29.1c-2.8,0-5.1-2.3-5.1-5.1v-20.6c0-2.8,2.3-5.1,5.1-5.1
		h29.1v-20.6c0-4.6,5.5-6.9,8.8-3.6l36,36C860.3,266.2,860.3,269.5,858.4,271.5z M793,306.4v-8.6c0-1.4-1.2-2.6-2.6-2.6h-18
		c-3.8,0-6.9-3.1-6.9-6.9v-41.1c0-3.8,3.1-6.9,6.9-6.9h18c1.4,0,2.6-1.2,2.6-2.6v-8.6c0-1.4-1.2-2.6-2.6-2.6h-18
		c-11.4,0-20.6,9.2-20.6,20.6v41.1c0,11.4,9.2,20.6,20.6,20.6h18C791.8,309,793,307.8,793,306.4z"/>
</g>
</svg>
